<svg width="481" height="411" viewBox="0 0 481 411">
<rect x="113.5" y="45.5" width="248" height="172" fill="white" stroke="black"/>
<rect x="128" y="74" width="225" height="131" fill="#ACD2FF"/>
<rect x="153.5" y="170.5" width="168" height="15" rx="7.5" fill="white" stroke="black"/>
<path d="M210.255 179.631L210.252 178.389H210.417L211.985 176.636H213.187L211.258 178.784H211.045L210.255 179.631ZM209.317 181V175.182H210.346V181H209.317ZM212.056 181L210.636 179.014L211.329 178.29L213.286 181H212.056ZM216.653 179.165V176.636H217.682V181H216.685V180.224H216.639C216.541 180.469 216.379 180.669 216.153 180.824C215.93 180.979 215.654 181.057 215.327 181.057C215.041 181.057 214.788 180.993 214.568 180.866C214.35 180.738 214.18 180.551 214.057 180.307C213.934 180.061 213.872 179.763 213.872 179.415V176.636H214.901V179.256C214.901 179.532 214.976 179.752 215.128 179.915C215.279 180.078 215.478 180.159 215.724 180.159C215.876 180.159 216.023 180.122 216.165 180.048C216.307 179.974 216.423 179.865 216.514 179.719C216.607 179.571 216.653 179.386 216.653 179.165ZM218.785 181V175.182H219.813V177.358H219.856C219.909 177.252 219.984 177.139 220.08 177.02C220.177 176.899 220.308 176.795 220.472 176.71C220.637 176.623 220.847 176.58 221.103 176.58C221.44 176.58 221.744 176.666 222.015 176.838C222.288 177.009 222.504 177.261 222.663 177.597C222.824 177.93 222.904 178.339 222.904 178.824C222.904 179.303 222.826 179.71 222.668 180.045C222.511 180.381 222.297 180.636 222.026 180.812C221.755 180.989 221.449 181.077 221.106 181.077C220.856 181.077 220.648 181.035 220.484 180.952C220.319 180.868 220.186 180.768 220.086 180.651C219.987 180.531 219.911 180.419 219.856 180.312H219.796V181H218.785ZM219.793 178.818C219.793 179.1 219.833 179.348 219.913 179.56C219.994 179.772 220.111 179.937 220.262 180.057C220.415 180.174 220.601 180.233 220.819 180.233C221.046 180.233 221.237 180.172 221.39 180.051C221.543 179.928 221.659 179.76 221.737 179.548C221.816 179.334 221.856 179.091 221.856 178.818C221.856 178.547 221.817 178.307 221.739 178.097C221.662 177.886 221.546 177.722 221.393 177.602C221.239 177.483 221.048 177.423 220.819 177.423C220.599 177.423 220.413 177.481 220.259 177.597C220.106 177.712 219.989 177.874 219.91 178.082C219.832 178.291 219.793 178.536 219.793 178.818ZM225.71 181.085C225.273 181.085 224.895 180.994 224.577 180.812C224.26 180.629 224.017 180.369 223.847 180.034C223.676 179.697 223.591 179.3 223.591 178.844C223.591 178.395 223.676 178.001 223.847 177.662C224.019 177.321 224.259 177.056 224.568 176.866C224.877 176.675 225.24 176.58 225.656 176.58C225.925 176.58 226.179 176.623 226.418 176.71C226.658 176.795 226.87 176.928 227.054 177.108C227.24 177.288 227.385 177.517 227.491 177.795C227.598 178.072 227.651 178.402 227.651 178.784V179.099H224.074V178.406H226.665C226.663 178.209 226.62 178.034 226.537 177.881C226.454 177.725 226.337 177.603 226.188 177.514C226.04 177.425 225.867 177.381 225.67 177.381C225.46 177.381 225.276 177.432 225.116 177.534C224.957 177.634 224.833 177.767 224.744 177.932C224.657 178.095 224.613 178.274 224.611 178.469V179.074C224.611 179.328 224.657 179.545 224.75 179.727C224.843 179.907 224.973 180.045 225.139 180.142C225.306 180.237 225.501 180.284 225.724 180.284C225.874 180.284 226.009 180.263 226.131 180.222C226.252 180.178 226.357 180.115 226.446 180.031C226.535 179.948 226.602 179.845 226.648 179.722L227.608 179.83C227.547 180.083 227.432 180.305 227.261 180.494C227.093 180.682 226.877 180.828 226.614 180.932C226.35 181.034 226.049 181.085 225.71 181.085ZM231.165 178.153V179H228.546V178.153H231.165ZM233.503 181.088C233.226 181.088 232.977 181.039 232.756 180.94C232.536 180.84 232.362 180.692 232.233 180.497C232.106 180.302 232.043 180.062 232.043 179.776C232.043 179.529 232.088 179.326 232.179 179.165C232.27 179.004 232.394 178.875 232.551 178.778C232.708 178.682 232.885 178.609 233.082 178.56C233.281 178.509 233.487 178.472 233.699 178.449C233.955 178.422 234.162 178.399 234.321 178.378C234.48 178.355 234.596 178.321 234.668 178.276C234.741 178.228 234.778 178.155 234.778 178.057V178.04C234.778 177.826 234.715 177.66 234.588 177.543C234.461 177.425 234.278 177.366 234.04 177.366C233.788 177.366 233.588 177.421 233.44 177.531C233.295 177.641 233.196 177.771 233.145 177.92L232.185 177.784C232.26 177.519 232.385 177.297 232.56 177.119C232.734 176.939 232.947 176.805 233.199 176.716C233.451 176.625 233.729 176.58 234.034 176.58C234.244 176.58 234.454 176.604 234.662 176.653C234.87 176.703 235.061 176.784 235.233 176.898C235.405 177.009 235.544 177.162 235.648 177.355C235.754 177.548 235.807 177.79 235.807 178.08V181H234.818V180.401H234.784C234.722 180.522 234.634 180.635 234.52 180.741C234.408 180.846 234.267 180.93 234.097 180.994C233.928 181.057 233.73 181.088 233.503 181.088ZM233.77 180.332C233.976 180.332 234.155 180.292 234.307 180.21C234.458 180.127 234.575 180.017 234.656 179.881C234.74 179.744 234.781 179.596 234.781 179.435V178.92C234.749 178.947 234.694 178.972 234.616 178.994C234.541 179.017 234.455 179.037 234.361 179.054C234.266 179.071 234.172 179.086 234.08 179.099C233.987 179.113 233.906 179.124 233.838 179.134C233.685 179.154 233.547 179.188 233.426 179.236C233.305 179.283 233.209 179.349 233.139 179.435C233.069 179.518 233.034 179.626 233.034 179.759C233.034 179.948 233.103 180.091 233.241 180.188C233.38 180.284 233.556 180.332 233.77 180.332ZM236.841 182.636V176.636H237.852V177.358H237.912C237.965 177.252 238.04 177.139 238.136 177.02C238.233 176.899 238.364 176.795 238.528 176.71C238.693 176.623 238.903 176.58 239.159 176.58C239.496 176.58 239.8 176.666 240.071 176.838C240.344 177.009 240.56 177.261 240.719 177.597C240.88 177.93 240.96 178.339 240.96 178.824C240.96 179.303 240.882 179.71 240.724 180.045C240.567 180.381 240.353 180.636 240.082 180.812C239.812 180.989 239.505 181.077 239.162 181.077C238.912 181.077 238.705 181.035 238.54 180.952C238.375 180.868 238.242 180.768 238.142 180.651C238.044 180.531 237.967 180.419 237.912 180.312H237.869V182.636H236.841ZM237.849 178.818C237.849 179.1 237.889 179.348 237.969 179.56C238.05 179.772 238.167 179.937 238.318 180.057C238.472 180.174 238.657 180.233 238.875 180.233C239.102 180.233 239.293 180.172 239.446 180.051C239.599 179.928 239.715 179.76 239.793 179.548C239.872 179.334 239.912 179.091 239.912 178.818C239.912 178.547 239.873 178.307 239.795 178.097C239.718 177.886 239.602 177.722 239.449 177.602C239.295 177.483 239.104 177.423 238.875 177.423C238.655 177.423 238.469 177.481 238.315 177.597C238.162 177.712 238.045 177.874 237.966 178.082C237.888 178.291 237.849 178.536 237.849 178.818ZM241.841 181V176.636H242.869V181H241.841ZM242.358 176.017C242.195 176.017 242.055 175.963 241.938 175.855C241.82 175.745 241.761 175.614 241.761 175.46C241.761 175.305 241.82 175.173 241.938 175.065C242.055 174.955 242.195 174.901 242.358 174.901C242.523 174.901 242.663 174.955 242.778 175.065C242.896 175.173 242.955 175.305 242.955 175.46C242.955 175.614 242.896 175.745 242.778 175.855C242.663 175.963 242.523 176.017 242.358 176.017ZM247.376 177.79L246.438 177.892C246.412 177.797 246.365 177.708 246.299 177.625C246.235 177.542 246.147 177.474 246.038 177.423C245.928 177.372 245.793 177.347 245.634 177.347C245.42 177.347 245.24 177.393 245.094 177.486C244.951 177.579 244.879 177.699 244.881 177.847C244.879 177.973 244.926 178.077 245.021 178.156C245.117 178.236 245.276 178.301 245.498 178.352L246.242 178.511C246.655 178.6 246.962 178.741 247.163 178.935C247.365 179.128 247.468 179.381 247.469 179.693C247.468 179.968 247.387 180.21 247.228 180.42C247.071 180.629 246.852 180.792 246.572 180.909C246.291 181.027 245.969 181.085 245.606 181.085C245.072 181.085 244.642 180.973 244.316 180.75C243.99 180.525 243.796 180.211 243.734 179.81L244.737 179.713C244.782 179.91 244.879 180.059 245.026 180.159C245.174 180.259 245.366 180.31 245.603 180.31C245.847 180.31 246.043 180.259 246.191 180.159C246.341 180.059 246.415 179.935 246.415 179.787C246.415 179.662 246.367 179.559 246.271 179.477C246.176 179.396 246.028 179.333 245.827 179.29L245.083 179.134C244.665 179.046 244.355 178.9 244.154 178.693C243.953 178.485 243.854 178.222 243.856 177.903C243.854 177.634 243.927 177.402 244.075 177.205C244.224 177.006 244.432 176.852 244.697 176.744C244.964 176.634 245.272 176.58 245.62 176.58C246.131 176.58 246.534 176.688 246.827 176.906C247.123 177.124 247.306 177.419 247.376 177.79ZM250.249 181.085C249.812 181.085 249.434 180.994 249.116 180.812C248.799 180.629 248.556 180.369 248.386 180.034C248.215 179.697 248.13 179.3 248.13 178.844C248.13 178.395 248.215 178.001 248.386 177.662C248.558 177.321 248.799 177.056 249.107 176.866C249.416 176.675 249.779 176.58 250.195 176.58C250.464 176.58 250.718 176.623 250.957 176.71C251.197 176.795 251.409 176.928 251.593 177.108C251.779 177.288 251.924 177.517 252.031 177.795C252.137 178.072 252.19 178.402 252.19 178.784V179.099H248.613V178.406H251.204C251.202 178.209 251.159 178.034 251.076 177.881C250.993 177.725 250.876 177.603 250.727 177.514C250.579 177.425 250.406 177.381 250.21 177.381C249.999 177.381 249.815 177.432 249.656 177.534C249.496 177.634 249.372 177.767 249.283 177.932C249.196 178.095 249.152 178.274 249.15 178.469V179.074C249.15 179.328 249.196 179.545 249.289 179.727C249.382 179.907 249.512 180.045 249.678 180.142C249.845 180.237 250.04 180.284 250.263 180.284C250.413 180.284 250.549 180.263 250.67 180.222C250.791 180.178 250.896 180.115 250.985 180.031C251.074 179.948 251.141 179.845 251.187 179.722L252.147 179.83C252.086 180.083 251.971 180.305 251.8 180.494C251.632 180.682 251.416 180.828 251.153 180.932C250.889 181.034 250.588 181.085 250.249 181.085ZM253.06 181V176.636H254.057V177.364H254.102C254.182 177.112 254.318 176.918 254.511 176.781C254.706 176.643 254.929 176.574 255.179 176.574C255.236 176.574 255.299 176.577 255.369 176.582C255.441 176.586 255.501 176.593 255.548 176.602V177.548C255.505 177.533 255.436 177.52 255.341 177.509C255.248 177.495 255.158 177.489 255.071 177.489C254.884 177.489 254.715 177.529 254.565 177.611C254.418 177.69 254.301 177.801 254.216 177.943C254.131 178.085 254.088 178.249 254.088 178.435V181H253.06ZM260.262 176.636L258.708 181H257.572L256.018 176.636H257.114L258.117 179.878H258.163L259.168 176.636H260.262ZM262.757 181.085C262.32 181.085 261.942 180.994 261.624 180.812C261.307 180.629 261.064 180.369 260.893 180.034C260.723 179.697 260.638 179.3 260.638 178.844C260.638 178.395 260.723 178.001 260.893 177.662C261.066 177.321 261.306 177.056 261.615 176.866C261.924 176.675 262.286 176.58 262.703 176.58C262.972 176.58 263.226 176.623 263.464 176.71C263.705 176.795 263.917 176.928 264.101 177.108C264.286 177.288 264.432 177.517 264.538 177.795C264.644 178.072 264.697 178.402 264.697 178.784V179.099H261.121V178.406H263.712C263.71 178.209 263.667 178.034 263.584 177.881C263.5 177.725 263.384 177.603 263.234 177.514C263.087 177.425 262.914 177.381 262.717 177.381C262.507 177.381 262.322 177.432 262.163 177.534C262.004 177.634 261.88 177.767 261.791 177.932C261.704 178.095 261.66 178.274 261.658 178.469V179.074C261.658 179.328 261.704 179.545 261.797 179.727C261.89 179.907 262.019 180.045 262.186 180.142C262.353 180.237 262.548 180.284 262.771 180.284C262.921 180.284 263.056 180.263 263.178 180.222C263.299 180.178 263.404 180.115 263.493 180.031C263.582 179.948 263.649 179.845 263.695 179.722L264.655 179.83C264.594 180.083 264.479 180.305 264.308 180.494C264.14 180.682 263.924 180.828 263.661 180.932C263.397 181.034 263.096 181.085 262.757 181.085ZM265.567 181V176.636H266.565V177.364H266.61C266.69 177.112 266.826 176.918 267.019 176.781C267.214 176.643 267.437 176.574 267.687 176.574C267.744 176.574 267.807 176.577 267.877 176.582C267.949 176.586 268.009 176.593 268.056 176.602V177.548C268.013 177.533 267.943 177.52 267.849 177.509C267.756 177.495 267.666 177.489 267.579 177.489C267.391 177.489 267.223 177.529 267.073 177.611C266.925 177.69 266.809 177.801 266.724 177.943C266.638 178.085 266.596 178.249 266.596 178.435V181H265.567Z" fill="black"/>
<rect x="131.5" y="118.5" width="82" height="16" rx="8" fill="white" stroke="black"/>
<path d="M158.718 126.145H157.656C157.625 125.971 157.569 125.816 157.488 125.682C157.406 125.545 157.305 125.43 157.184 125.335C157.063 125.241 156.924 125.17 156.769 125.122C156.616 125.073 156.45 125.048 156.272 125.048C155.956 125.048 155.675 125.128 155.431 125.287C155.187 125.444 154.996 125.675 154.857 125.98C154.719 126.283 154.65 126.653 154.65 127.091C154.65 127.536 154.719 127.911 154.857 128.216C154.997 128.519 155.189 128.748 155.431 128.903C155.675 129.057 155.955 129.134 156.269 129.134C156.443 129.134 156.606 129.111 156.758 129.065C156.911 129.018 157.049 128.949 157.17 128.858C157.293 128.767 157.396 128.655 157.479 128.523C157.565 128.39 157.623 128.239 157.656 128.068L158.718 128.074C158.678 128.35 158.592 128.61 158.46 128.852C158.329 129.095 158.157 129.309 157.945 129.494C157.733 129.678 157.485 129.822 157.201 129.926C156.917 130.028 156.602 130.08 156.255 130.08C155.744 130.08 155.287 129.961 154.886 129.724C154.484 129.488 154.168 129.146 153.937 128.699C153.706 128.252 153.59 127.716 153.59 127.091C153.59 126.464 153.707 125.928 153.94 125.483C154.173 125.036 154.49 124.694 154.891 124.457C155.293 124.221 155.747 124.102 156.255 124.102C156.579 124.102 156.88 124.148 157.158 124.239C157.437 124.33 157.685 124.463 157.903 124.639C158.121 124.813 158.299 125.027 158.44 125.281C158.582 125.533 158.674 125.821 158.718 126.145ZM161.541 130.085C161.115 130.085 160.746 129.991 160.433 129.804C160.121 129.616 159.878 129.354 159.706 129.017C159.536 128.68 159.45 128.286 159.45 127.835C159.45 127.384 159.536 126.99 159.706 126.651C159.878 126.312 160.121 126.048 160.433 125.861C160.746 125.673 161.115 125.58 161.541 125.58C161.967 125.58 162.337 125.673 162.649 125.861C162.962 126.048 163.203 126.312 163.374 126.651C163.546 126.99 163.632 127.384 163.632 127.835C163.632 128.286 163.546 128.68 163.374 129.017C163.203 129.354 162.962 129.616 162.649 129.804C162.337 129.991 161.967 130.085 161.541 130.085ZM161.547 129.261C161.778 129.261 161.971 129.198 162.126 129.071C162.282 128.942 162.397 128.77 162.473 128.554C162.551 128.338 162.589 128.098 162.589 127.832C162.589 127.565 162.551 127.324 162.473 127.108C162.397 126.89 162.282 126.717 162.126 126.588C161.971 126.459 161.778 126.395 161.547 126.395C161.31 126.395 161.113 126.459 160.956 126.588C160.801 126.717 160.684 126.89 160.607 127.108C160.531 127.324 160.493 127.565 160.493 127.832C160.493 128.098 160.531 128.338 160.607 128.554C160.684 128.77 160.801 128.942 160.956 129.071C161.113 129.198 161.31 129.261 161.547 129.261ZM165.533 127.443V130H164.505V125.636H165.488V126.378H165.539C165.639 126.134 165.799 125.939 166.019 125.795C166.241 125.652 166.514 125.58 166.84 125.58C167.141 125.58 167.404 125.644 167.627 125.773C167.853 125.902 168.027 126.088 168.15 126.332C168.275 126.577 168.336 126.873 168.335 127.222V130H167.306V127.381C167.306 127.089 167.23 126.861 167.079 126.696C166.929 126.531 166.722 126.449 166.457 126.449C166.277 126.449 166.117 126.489 165.977 126.568C165.838 126.646 165.729 126.759 165.65 126.906C165.572 127.054 165.533 127.233 165.533 127.443ZM171.559 125.636V126.432H169.05V125.636H171.559ZM169.67 124.591H170.698V128.688C170.698 128.826 170.719 128.932 170.761 129.006C170.804 129.078 170.861 129.127 170.931 129.153C171.001 129.18 171.079 129.193 171.164 129.193C171.228 129.193 171.287 129.188 171.34 129.179C171.395 129.17 171.437 129.161 171.465 129.153L171.638 129.957C171.584 129.976 171.505 129.997 171.403 130.02C171.302 130.043 171.179 130.056 171.033 130.06C170.776 130.067 170.544 130.028 170.337 129.943C170.131 129.856 169.967 129.722 169.846 129.54C169.727 129.358 169.668 129.131 169.67 128.858V124.591ZM172.419 130V125.636H173.416V126.364H173.462C173.541 126.112 173.678 125.918 173.871 125.781C174.066 125.643 174.288 125.574 174.538 125.574C174.595 125.574 174.659 125.577 174.729 125.582C174.801 125.586 174.86 125.593 174.908 125.602V126.548C174.864 126.533 174.795 126.52 174.7 126.509C174.607 126.495 174.518 126.489 174.43 126.489C174.243 126.489 174.074 126.529 173.925 126.611C173.777 126.69 173.661 126.801 173.575 126.943C173.49 127.085 173.447 127.249 173.447 127.435V130H172.419ZM177.315 130.085C176.888 130.085 176.519 129.991 176.207 129.804C175.894 129.616 175.652 129.354 175.479 129.017C175.309 128.68 175.224 128.286 175.224 127.835C175.224 127.384 175.309 126.99 175.479 126.651C175.652 126.312 175.894 126.048 176.207 125.861C176.519 125.673 176.888 125.58 177.315 125.58C177.741 125.58 178.11 125.673 178.423 125.861C178.735 126.048 178.977 126.312 179.147 126.651C179.319 126.99 179.406 127.384 179.406 127.835C179.406 128.286 179.319 128.68 179.147 129.017C178.977 129.354 178.735 129.616 178.423 129.804C178.11 129.991 177.741 130.085 177.315 130.085ZM177.32 129.261C177.551 129.261 177.745 129.198 177.9 129.071C178.055 128.942 178.171 128.77 178.246 128.554C178.324 128.338 178.363 128.098 178.363 127.832C178.363 127.565 178.324 127.324 178.246 127.108C178.171 126.89 178.055 126.717 177.9 126.588C177.745 126.459 177.551 126.395 177.32 126.395C177.084 126.395 176.887 126.459 176.729 126.588C176.574 126.717 176.458 126.89 176.38 127.108C176.304 127.324 176.266 127.565 176.266 127.832C176.266 128.098 176.304 128.338 176.38 128.554C176.458 128.77 176.574 128.942 176.729 129.071C176.887 129.198 177.084 129.261 177.32 129.261ZM181.307 124.182V130H180.278V124.182H181.307ZM183.393 124.182V130H182.364V124.182H183.393ZM186.382 130.085C185.945 130.085 185.567 129.994 185.249 129.812C184.932 129.629 184.689 129.369 184.518 129.034C184.348 128.697 184.263 128.3 184.263 127.844C184.263 127.395 184.348 127.001 184.518 126.662C184.691 126.321 184.931 126.056 185.24 125.866C185.549 125.675 185.911 125.58 186.328 125.58C186.597 125.58 186.851 125.623 187.089 125.71C187.33 125.795 187.542 125.928 187.726 126.108C187.911 126.288 188.057 126.517 188.163 126.795C188.269 127.072 188.322 127.402 188.322 127.784V128.099H184.746V127.406H187.337C187.335 127.209 187.292 127.034 187.209 126.881C187.125 126.725 187.009 126.603 186.859 126.514C186.712 126.425 186.539 126.381 186.342 126.381C186.132 126.381 185.947 126.432 185.788 126.534C185.629 126.634 185.505 126.767 185.416 126.932C185.329 127.095 185.285 127.274 185.283 127.469V128.074C185.283 128.328 185.329 128.545 185.422 128.727C185.515 128.907 185.644 129.045 185.811 129.142C185.978 129.237 186.173 129.284 186.396 129.284C186.546 129.284 186.681 129.263 186.803 129.222C186.924 129.178 187.029 129.115 187.118 129.031C187.207 128.948 187.274 128.845 187.32 128.722L188.28 128.83C188.219 129.083 188.104 129.305 187.933 129.494C187.765 129.682 187.549 129.828 187.286 129.932C187.022 130.034 186.721 130.085 186.382 130.085ZM189.192 130V125.636H190.19V126.364H190.235C190.315 126.112 190.451 125.918 190.644 125.781C190.839 125.643 191.062 125.574 191.312 125.574C191.369 125.574 191.432 125.577 191.502 125.582C191.574 125.586 191.634 125.593 191.681 125.602V126.548C191.638 126.533 191.568 126.52 191.474 126.509C191.381 126.495 191.291 126.489 191.204 126.489C191.016 126.489 190.848 126.529 190.698 126.611C190.55 126.69 190.434 126.801 190.349 126.943C190.263 127.085 190.221 127.249 190.221 127.435V130H189.192Z" fill="black"/>
<rect x="255.5" y="118.5" width="82" height="16" rx="8" fill="white" stroke="black"/>
<path d="M280.696 126.79L279.759 126.892C279.732 126.797 279.686 126.708 279.619 126.625C279.555 126.542 279.468 126.474 279.358 126.423C279.248 126.372 279.114 126.347 278.955 126.347C278.741 126.347 278.561 126.393 278.415 126.486C278.271 126.579 278.2 126.699 278.202 126.847C278.2 126.973 278.246 127.077 278.341 127.156C278.438 127.236 278.597 127.301 278.818 127.352L279.562 127.511C279.975 127.6 280.282 127.741 280.483 127.935C280.686 128.128 280.788 128.381 280.79 128.693C280.788 128.968 280.707 129.21 280.548 129.42C280.391 129.629 280.172 129.792 279.892 129.909C279.612 130.027 279.29 130.085 278.926 130.085C278.392 130.085 277.962 129.973 277.636 129.75C277.311 129.525 277.116 129.211 277.054 128.81L278.057 128.713C278.102 128.91 278.199 129.059 278.347 129.159C278.494 129.259 278.687 129.31 278.923 129.31C279.168 129.31 279.364 129.259 279.511 129.159C279.661 129.059 279.736 128.935 279.736 128.787C279.736 128.662 279.688 128.559 279.591 128.477C279.496 128.396 279.348 128.333 279.148 128.29L278.403 128.134C277.985 128.046 277.675 127.9 277.474 127.693C277.274 127.485 277.174 127.222 277.176 126.903C277.174 126.634 277.247 126.402 277.395 126.205C277.545 126.006 277.752 125.852 278.017 125.744C278.284 125.634 278.592 125.58 278.94 125.58C279.452 125.58 279.854 125.688 280.148 125.906C280.443 126.124 280.626 126.419 280.696 126.79ZM283.541 130.085C283.106 130.085 282.732 129.99 282.419 129.798C282.108 129.607 281.869 129.343 281.7 129.006C281.534 128.667 281.45 128.277 281.45 127.835C281.45 127.392 281.536 127.001 281.706 126.662C281.876 126.321 282.117 126.056 282.428 125.866C282.74 125.675 283.109 125.58 283.536 125.58C283.89 125.58 284.203 125.645 284.476 125.776C284.75 125.904 284.969 126.087 285.132 126.324C285.295 126.559 285.388 126.833 285.411 127.148H284.428C284.388 126.937 284.293 126.762 284.143 126.622C283.996 126.48 283.798 126.409 283.55 126.409C283.339 126.409 283.155 126.466 282.996 126.58C282.837 126.691 282.713 126.852 282.624 127.062C282.536 127.273 282.493 127.525 282.493 127.818C282.493 128.116 282.536 128.371 282.624 128.585C282.711 128.797 282.833 128.961 282.99 129.077C283.149 129.19 283.336 129.247 283.55 129.247C283.701 129.247 283.837 129.219 283.956 129.162C284.077 129.103 284.179 129.019 284.26 128.909C284.341 128.799 284.397 128.666 284.428 128.509H285.411C285.386 128.817 285.295 129.091 285.138 129.33C284.981 129.566 284.767 129.752 284.496 129.886C284.225 130.019 283.907 130.085 283.541 130.085ZM287.283 127.443V130H286.255V124.182H287.261V126.378H287.312C287.414 126.132 287.572 125.937 287.786 125.795C288.002 125.652 288.277 125.58 288.61 125.58C288.913 125.58 289.177 125.643 289.403 125.77C289.628 125.897 289.802 126.082 289.925 126.327C290.05 126.571 290.113 126.869 290.113 127.222V130H289.085V127.381C289.085 127.087 289.009 126.859 288.857 126.696C288.708 126.531 288.497 126.449 288.227 126.449C288.045 126.449 287.882 126.489 287.738 126.568C287.596 126.646 287.484 126.759 287.403 126.906C287.323 127.054 287.283 127.233 287.283 127.443ZM293.093 130.085C292.656 130.085 292.278 129.994 291.96 129.812C291.643 129.629 291.4 129.369 291.229 129.034C291.059 128.697 290.974 128.3 290.974 127.844C290.974 127.395 291.059 127.001 291.229 126.662C291.402 126.321 291.642 126.056 291.951 125.866C292.26 125.675 292.622 125.58 293.039 125.58C293.308 125.58 293.562 125.623 293.8 125.71C294.041 125.795 294.253 125.928 294.437 126.108C294.622 126.288 294.768 126.517 294.874 126.795C294.98 127.072 295.033 127.402 295.033 127.784V128.099H291.457V127.406H294.048C294.046 127.209 294.003 127.034 293.92 126.881C293.836 126.725 293.72 126.603 293.57 126.514C293.423 126.425 293.25 126.381 293.053 126.381C292.843 126.381 292.658 126.432 292.499 126.534C292.34 126.634 292.216 126.767 292.127 126.932C292.04 127.095 291.996 127.274 291.994 127.469V128.074C291.994 128.328 292.04 128.545 292.133 128.727C292.226 128.907 292.355 129.045 292.522 129.142C292.689 129.237 292.884 129.284 293.107 129.284C293.257 129.284 293.392 129.263 293.513 129.222C293.635 129.178 293.74 129.115 293.829 129.031C293.918 128.948 293.985 128.845 294.031 128.722L294.991 128.83C294.93 129.083 294.815 129.305 294.644 129.494C294.476 129.682 294.26 129.828 293.996 129.932C293.733 130.034 293.432 130.085 293.093 130.085ZM297.523 130.077C297.18 130.077 296.873 129.989 296.602 129.812C296.331 129.636 296.117 129.381 295.96 129.045C295.803 128.71 295.724 128.303 295.724 127.824C295.724 127.339 295.804 126.93 295.963 126.597C296.124 126.261 296.341 126.009 296.614 125.838C296.886 125.666 297.19 125.58 297.526 125.58C297.781 125.58 297.991 125.623 298.156 125.71C298.321 125.795 298.452 125.899 298.548 126.02C298.645 126.139 298.72 126.252 298.773 126.358H298.815V124.182H299.847V130H298.835V129.312H298.773C298.72 129.419 298.643 129.531 298.543 129.651C298.442 129.768 298.31 129.868 298.145 129.952C297.98 130.035 297.773 130.077 297.523 130.077ZM297.81 129.233C298.027 129.233 298.213 129.174 298.366 129.057C298.52 128.937 298.636 128.772 298.716 128.56C298.795 128.348 298.835 128.1 298.835 127.818C298.835 127.536 298.795 127.291 298.716 127.082C298.638 126.874 298.523 126.712 298.369 126.597C298.218 126.481 298.031 126.423 297.81 126.423C297.58 126.423 297.389 126.483 297.236 126.602C297.082 126.722 296.967 126.886 296.889 127.097C296.812 127.307 296.773 127.547 296.773 127.818C296.773 128.091 296.812 128.334 296.889 128.548C296.969 128.76 297.085 128.928 297.239 129.051C297.394 129.172 297.584 129.233 297.81 129.233ZM303.724 128.165V125.636H304.752V130H303.755V129.224H303.71C303.611 129.469 303.449 129.669 303.224 129.824C303 129.979 302.725 130.057 302.397 130.057C302.111 130.057 301.858 129.993 301.638 129.866C301.421 129.738 301.25 129.551 301.127 129.307C301.004 129.061 300.942 128.763 300.942 128.415V125.636H301.971V128.256C301.971 128.532 302.047 128.752 302.198 128.915C302.35 129.078 302.549 129.159 302.795 129.159C302.946 129.159 303.093 129.122 303.235 129.048C303.377 128.974 303.494 128.865 303.585 128.719C303.677 128.571 303.724 128.386 303.724 128.165ZM306.838 124.182V130H305.81V124.182H306.838ZM309.827 130.085C309.39 130.085 309.012 129.994 308.694 129.812C308.378 129.629 308.134 129.369 307.964 129.034C307.793 128.697 307.708 128.3 307.708 127.844C307.708 127.395 307.793 127.001 307.964 126.662C308.136 126.321 308.377 126.056 308.685 125.866C308.994 125.675 309.357 125.58 309.773 125.58C310.042 125.58 310.296 125.623 310.535 125.71C310.775 125.795 310.987 125.928 311.171 126.108C311.357 126.288 311.503 126.517 311.609 126.795C311.715 127.072 311.768 127.402 311.768 127.784V128.099H308.191V127.406H310.782C310.78 127.209 310.737 127.034 310.654 126.881C310.571 126.725 310.454 126.603 310.305 126.514C310.157 126.425 309.985 126.381 309.788 126.381C309.577 126.381 309.393 126.432 309.234 126.534C309.075 126.634 308.951 126.767 308.862 126.932C308.774 127.095 308.73 127.274 308.728 127.469V128.074C308.728 128.328 308.774 128.545 308.867 128.727C308.96 128.907 309.09 129.045 309.256 129.142C309.423 129.237 309.618 129.284 309.842 129.284C309.991 129.284 310.127 129.263 310.248 129.222C310.369 129.178 310.474 129.115 310.563 129.031C310.652 128.948 310.719 128.845 310.765 128.722L311.725 128.83C311.665 129.083 311.549 129.305 311.379 129.494C311.21 129.682 310.994 129.828 310.731 129.932C310.468 130.034 310.166 130.085 309.827 130.085ZM312.638 130V125.636H313.635V126.364H313.68C313.76 126.112 313.896 125.918 314.089 125.781C314.285 125.643 314.507 125.574 314.757 125.574C314.814 125.574 314.877 125.577 314.947 125.582C315.019 125.586 315.079 125.593 315.126 125.602V126.548C315.083 126.533 315.014 126.52 314.919 126.509C314.826 126.495 314.736 126.489 314.649 126.489C314.462 126.489 314.293 126.529 314.143 126.611C313.996 126.69 313.879 126.801 313.794 126.943C313.709 127.085 313.666 127.249 313.666 127.435V130H312.638Z" fill="black"/>
<rect x="192.5" y="88.5" width="82" height="16" rx="8" fill="white" stroke="black"/>
<path d="M227.265 100.085C226.827 100.085 226.45 99.9943 226.131 99.8125C225.815 99.6288 225.572 99.3693 225.401 99.0341C225.231 98.697 225.146 98.3002 225.146 97.8438C225.146 97.3949 225.231 97.0009 225.401 96.6619C225.574 96.321 225.814 96.0559 226.123 95.8665C226.432 95.6752 226.794 95.5795 227.211 95.5795C227.48 95.5795 227.734 95.6231 227.972 95.7102C228.213 95.7955 228.425 95.928 228.609 96.108C228.794 96.2879 228.94 96.517 229.046 96.7955C229.152 97.072 229.205 97.4015 229.205 97.7841V98.0994H225.629V97.4062H228.219C228.218 97.2093 228.175 97.0341 228.092 96.8807C228.008 96.7254 227.892 96.6032 227.742 96.5142C227.594 96.4252 227.422 96.3807 227.225 96.3807C227.015 96.3807 226.83 96.4318 226.671 96.5341C226.512 96.6345 226.388 96.767 226.299 96.9318C226.212 97.0947 226.167 97.2737 226.165 97.4688V98.0739C226.165 98.3277 226.212 98.5455 226.305 98.7273C226.397 98.9072 226.527 99.0455 226.694 99.142C226.861 99.2367 227.056 99.2841 227.279 99.2841C227.429 99.2841 227.564 99.2633 227.685 99.2216C227.807 99.178 227.912 99.1146 228.001 99.0312C228.09 98.9479 228.157 98.8447 228.202 98.7216L229.163 98.8295C229.102 99.0833 228.987 99.3049 228.816 99.4943C228.647 99.6818 228.432 99.8277 228.168 99.9318C227.905 100.034 227.604 100.085 227.265 100.085ZM232.254 95.6364V96.4318H229.746V95.6364H232.254ZM230.365 94.5909H231.393V98.6875C231.393 98.8258 231.414 98.9318 231.456 99.0057C231.5 99.0777 231.556 99.1269 231.626 99.1534C231.696 99.1799 231.774 99.1932 231.859 99.1932C231.924 99.1932 231.982 99.1884 232.036 99.179C232.09 99.1695 232.132 99.161 232.161 99.1534L232.334 99.9574C232.279 99.9763 232.2 99.9972 232.098 100.02C231.998 100.043 231.875 100.056 231.729 100.06C231.471 100.067 231.239 100.028 231.033 99.9432C230.826 99.8561 230.662 99.7216 230.541 99.5398C230.422 99.358 230.363 99.1307 230.365 98.858V94.5909ZM234.971 100.085C234.535 100.085 234.161 99.9896 233.849 99.7983C233.538 99.607 233.299 99.3428 233.13 99.0057C232.963 98.6667 232.88 98.2765 232.88 97.8352C232.88 97.392 232.965 97.0009 233.136 96.6619C233.306 96.321 233.547 96.0559 233.857 95.8665C234.17 95.6752 234.539 95.5795 234.965 95.5795C235.319 95.5795 235.633 95.6449 235.906 95.7756C236.18 95.9044 236.399 96.0871 236.562 96.3239C236.725 96.5587 236.817 96.8333 236.84 97.1477H235.857C235.817 96.9375 235.723 96.7623 235.573 96.6222C235.425 96.4801 235.228 96.4091 234.979 96.4091C234.769 96.4091 234.585 96.4659 234.425 96.5795C234.266 96.6913 234.142 96.8523 234.053 97.0625C233.966 97.2727 233.923 97.5246 233.923 97.8182C233.923 98.1155 233.966 98.3712 234.053 98.5852C234.14 98.7973 234.263 98.9612 234.42 99.0767C234.579 99.1903 234.765 99.2472 234.979 99.2472C235.131 99.2472 235.266 99.2187 235.386 99.1619C235.507 99.1032 235.608 99.0189 235.69 98.9091C235.771 98.7992 235.827 98.6657 235.857 98.5085H236.84C236.816 98.8172 236.725 99.0909 236.567 99.3295C236.41 99.5663 236.196 99.7519 235.925 99.8864C235.655 100.019 235.336 100.085 234.971 100.085ZM239.304 100.077C238.961 100.077 238.654 99.9886 238.384 99.8125C238.113 99.6364 237.899 99.3807 237.741 99.0455C237.584 98.7102 237.506 98.303 237.506 97.8239C237.506 97.339 237.585 96.9299 237.744 96.5966C237.905 96.2614 238.122 96.0085 238.395 95.8381C238.668 95.6657 238.972 95.5795 239.307 95.5795C239.563 95.5795 239.773 95.6231 239.938 95.7102C240.102 95.7955 240.233 95.8987 240.33 96.0199C240.426 96.1392 240.501 96.2519 240.554 96.358H240.597V94.1818H241.628V100H240.616V99.3125H240.554C240.501 99.4186 240.424 99.5312 240.324 99.6506C240.223 99.768 240.091 99.8684 239.926 99.9517C239.761 100.035 239.554 100.077 239.304 100.077ZM239.591 99.233C239.809 99.233 239.994 99.1742 240.148 99.0568C240.301 98.9375 240.418 98.7718 240.497 98.5597C240.577 98.3475 240.616 98.1004 240.616 97.8182C240.616 97.536 240.577 97.2907 240.497 97.0824C240.42 96.8741 240.304 96.7121 240.151 96.5966C239.999 96.4811 239.813 96.4233 239.591 96.4233C239.362 96.4233 239.17 96.483 239.017 96.6023C238.864 96.7216 238.748 96.8864 238.67 97.0966C238.593 97.3068 238.554 97.5473 238.554 97.8182C238.554 98.0909 238.593 98.3343 238.67 98.5483C238.75 98.7604 238.866 98.928 239.02 99.0511C239.175 99.1723 239.366 99.233 239.591 99.233Z" fill="black"/>
<path d="M128.128 66V57.6H129.592L132.652 62.568L131.812 62.556L134.896 57.6H136.288V66H134.764V62.856C134.764 62.128 134.78 61.476 134.812 60.9C134.852 60.316 134.916 59.74 135.004 59.172L135.196 59.676L132.592 63.708H131.788L129.256 59.724L129.424 59.172C129.512 59.708 129.572 60.26 129.604 60.828C129.644 61.396 129.664 62.072 129.664 62.856V66H128.128ZM141.906 66V61.956C141.906 61.612 141.79 61.344 141.558 61.152C141.334 60.952 141.042 60.852 140.682 60.852C140.346 60.852 140.042 60.92 139.77 61.056C139.498 61.184 139.246 61.392 139.014 61.68L138.102 60.768C138.478 60.368 138.894 60.064 139.35 59.856C139.806 59.648 140.298 59.544 140.826 59.544C141.33 59.544 141.762 59.624 142.122 59.784C142.49 59.944 142.774 60.184 142.974 60.504C143.174 60.816 143.274 61.2 143.274 61.656V66H141.906ZM140.106 66.12C139.698 66.12 139.334 66.04 139.014 65.88C138.694 65.72 138.438 65.5 138.246 65.22C138.062 64.932 137.97 64.596 137.97 64.212C137.97 63.876 138.03 63.584 138.15 63.336C138.27 63.08 138.446 62.868 138.678 62.7C138.918 62.532 139.214 62.408 139.566 62.328C139.926 62.24 140.338 62.196 140.802 62.196H142.614L142.506 63.252H140.718C140.502 63.252 140.31 63.272 140.142 63.312C139.974 63.352 139.83 63.412 139.71 63.492C139.59 63.572 139.502 63.668 139.446 63.78C139.39 63.884 139.362 64.012 139.362 64.164C139.362 64.324 139.402 64.464 139.482 64.584C139.562 64.696 139.67 64.784 139.806 64.848C139.942 64.912 140.102 64.944 140.286 64.944C140.55 64.944 140.798 64.9 141.03 64.812C141.27 64.724 141.482 64.6 141.666 64.44C141.85 64.28 141.994 64.1 142.098 63.9L142.398 64.716C142.23 64.996 142.022 65.24 141.774 65.448C141.534 65.656 141.27 65.82 140.982 65.94C140.702 66.06 140.41 66.12 140.106 66.12ZM146.945 66.12C146.393 66.12 145.893 66.028 145.445 65.844C145.005 65.652 144.645 65.38 144.365 65.028L145.313 64.212C145.553 64.476 145.821 64.672 146.117 64.8C146.413 64.92 146.725 64.98 147.053 64.98C147.189 64.98 147.309 64.964 147.413 64.932C147.525 64.9 147.621 64.852 147.701 64.788C147.781 64.724 147.841 64.648 147.881 64.56C147.929 64.472 147.953 64.376 147.953 64.272C147.953 64.08 147.881 63.928 147.737 63.816C147.657 63.768 147.533 63.712 147.365 63.648C147.197 63.576 146.977 63.508 146.705 63.444C146.273 63.332 145.909 63.204 145.613 63.06C145.325 62.908 145.101 62.74 144.941 62.556C144.805 62.396 144.705 62.224 144.641 62.04C144.577 61.848 144.545 61.636 144.545 61.404C144.545 61.044 144.649 60.724 144.857 60.444C145.073 60.164 145.357 59.944 145.709 59.784C146.061 59.624 146.453 59.544 146.885 59.544C147.205 59.544 147.513 59.584 147.809 59.664C148.113 59.744 148.393 59.86 148.649 60.012C148.905 60.156 149.125 60.332 149.309 60.54L148.493 61.44C148.349 61.296 148.185 61.168 148.001 61.056C147.825 60.936 147.645 60.844 147.461 60.78C147.277 60.716 147.105 60.684 146.945 60.684C146.793 60.684 146.657 60.7 146.537 60.732C146.417 60.756 146.317 60.796 146.237 60.852C146.157 60.908 146.093 60.98 146.045 61.068C146.005 61.148 145.985 61.24 145.985 61.344C145.993 61.448 146.017 61.544 146.057 61.632C146.105 61.712 146.169 61.78 146.249 61.836C146.329 61.892 146.457 61.956 146.633 62.028C146.809 62.1 147.037 62.168 147.317 62.232C147.709 62.336 148.037 62.452 148.301 62.58C148.565 62.708 148.773 62.856 148.925 63.024C149.077 63.168 149.185 63.336 149.249 63.528C149.313 63.72 149.345 63.936 149.345 64.176C149.345 64.552 149.237 64.888 149.021 65.184C148.813 65.472 148.529 65.7 148.169 65.868C147.809 66.036 147.401 66.12 146.945 66.12ZM151.341 66V58.068H152.805V66H151.341ZM150.093 61.044V59.676H154.185V61.044H150.093ZM158.215 66.12C157.551 66.12 156.963 65.984 156.451 65.712C155.947 65.432 155.551 65.052 155.263 64.572C154.983 64.084 154.843 63.524 154.843 62.892C154.843 62.396 154.923 61.944 155.083 61.536C155.243 61.128 155.467 60.776 155.755 60.48C156.043 60.176 156.383 59.944 156.775 59.784C157.175 59.616 157.607 59.532 158.071 59.532C158.495 59.532 158.883 59.612 159.235 59.772C159.595 59.932 159.907 60.152 160.171 60.432C160.435 60.704 160.635 61.032 160.771 61.416C160.915 61.792 160.983 62.204 160.975 62.652L160.963 63.18H155.851L155.563 62.16H159.727L159.547 62.364V62.088C159.523 61.848 159.443 61.636 159.307 61.452C159.171 61.26 158.995 61.112 158.779 61.008C158.571 60.896 158.339 60.84 158.083 60.84C157.691 60.84 157.359 60.916 157.087 61.068C156.815 61.212 156.607 61.428 156.463 61.716C156.327 62.004 156.259 62.36 156.259 62.784C156.259 63.192 156.343 63.548 156.511 63.852C156.687 64.156 156.935 64.392 157.255 64.56C157.575 64.728 157.947 64.812 158.371 64.812C158.667 64.812 158.939 64.764 159.187 64.668C159.443 64.572 159.715 64.4 160.003 64.152L160.723 65.16C160.507 65.36 160.259 65.532 159.979 65.676C159.707 65.812 159.419 65.92 159.115 66C158.811 66.08 158.511 66.12 158.215 66.12ZM162.282 66V59.676H163.722L163.746 61.692L163.554 61.236C163.642 60.916 163.794 60.628 164.01 60.372C164.226 60.116 164.474 59.916 164.754 59.772C165.042 59.62 165.338 59.544 165.642 59.544C165.778 59.544 165.906 59.556 166.026 59.58C166.154 59.604 166.258 59.632 166.338 59.664L165.954 61.272C165.858 61.224 165.746 61.188 165.618 61.164C165.498 61.132 165.374 61.116 165.246 61.116C165.038 61.116 164.842 61.156 164.658 61.236C164.482 61.308 164.326 61.412 164.19 61.548C164.062 61.684 163.958 61.844 163.878 62.028C163.798 62.204 163.758 62.4 163.758 62.616V66H162.282ZM173.728 66.12C173.096 66.12 172.532 65.98 172.036 65.7C171.54 65.412 171.148 65.02 170.86 64.524C170.58 64.028 170.44 63.464 170.44 62.832C170.44 62.2 170.58 61.636 170.86 61.14C171.148 60.644 171.54 60.256 172.036 59.976C172.532 59.688 173.096 59.544 173.728 59.544C174.352 59.544 174.912 59.688 175.408 59.976C175.904 60.256 176.292 60.644 176.572 61.14C176.86 61.636 177.004 62.2 177.004 62.832C177.004 63.464 176.86 64.028 176.572 64.524C176.292 65.02 175.904 65.412 175.408 65.7C174.912 65.98 174.352 66.12 173.728 66.12ZM173.728 64.812C174.072 64.812 174.38 64.728 174.652 64.56C174.924 64.384 175.136 64.148 175.288 63.852C175.448 63.548 175.524 63.208 175.516 62.832C175.524 62.448 175.448 62.108 175.288 61.812C175.136 61.508 174.924 61.272 174.652 61.104C174.38 60.936 174.072 60.852 173.728 60.852C173.384 60.852 173.072 60.94 172.792 61.116C172.52 61.284 172.308 61.52 172.156 61.824C172.004 62.12 171.928 62.456 171.928 62.832C171.928 63.208 172.004 63.548 172.156 63.852C172.308 64.148 172.52 64.384 172.792 64.56C173.072 64.728 173.384 64.812 173.728 64.812ZM180.521 66.12C180.065 66.12 179.669 66.016 179.333 65.808C179.005 65.6 178.749 65.308 178.565 64.932C178.389 64.556 178.301 64.104 178.301 63.576V59.676H179.765V63.264C179.765 63.76 179.881 64.152 180.113 64.44C180.353 64.728 180.685 64.872 181.109 64.872C181.317 64.872 181.505 64.84 181.673 64.776C181.849 64.704 182.001 64.608 182.129 64.488C182.257 64.36 182.357 64.208 182.429 64.032C182.501 63.856 182.537 63.668 182.537 63.468V59.676H184.001V66H182.573L182.549 64.68L182.813 64.536C182.717 64.832 182.553 65.1 182.321 65.34C182.097 65.58 181.829 65.772 181.517 65.916C181.205 66.052 180.873 66.12 180.521 66.12ZM193.075 66.12C192.475 66.12 191.923 66.016 191.419 65.808C190.915 65.6 190.479 65.304 190.111 64.92C189.743 64.528 189.455 64.068 189.247 63.54C189.047 63.004 188.947 62.42 188.947 61.788C188.947 61.18 189.055 60.616 189.271 60.096C189.487 59.576 189.787 59.12 190.171 58.728C190.555 58.336 191.003 58.032 191.515 57.816C192.027 57.6 192.579 57.492 193.171 57.492C193.579 57.492 193.975 57.552 194.359 57.672C194.743 57.792 195.095 57.96 195.415 58.176C195.743 58.384 196.011 58.632 196.219 58.92L195.223 59.988C194.911 59.668 194.583 59.424 194.239 59.256C193.903 59.088 193.547 59.004 193.171 59.004C192.803 59.004 192.455 59.072 192.127 59.208C191.807 59.344 191.527 59.536 191.287 59.784C191.055 60.032 190.871 60.328 190.735 60.672C190.599 61.008 190.531 61.384 190.531 61.8C190.531 62.224 190.595 62.612 190.723 62.964C190.859 63.308 191.047 63.604 191.287 63.852C191.535 64.1 191.827 64.288 192.163 64.416C192.507 64.544 192.887 64.608 193.303 64.608C193.559 64.608 193.811 64.576 194.059 64.512C194.307 64.44 194.539 64.336 194.755 64.2C194.971 64.064 195.163 63.908 195.331 63.732L196.099 64.968C195.907 65.184 195.651 65.38 195.331 65.556C195.011 65.732 194.655 65.872 194.263 65.976C193.871 66.072 193.475 66.12 193.075 66.12ZM200.342 66.12C199.71 66.12 199.146 65.98 198.65 65.7C198.154 65.412 197.762 65.02 197.474 64.524C197.194 64.028 197.054 63.464 197.054 62.832C197.054 62.2 197.194 61.636 197.474 61.14C197.762 60.644 198.154 60.256 198.65 59.976C199.146 59.688 199.71 59.544 200.342 59.544C200.966 59.544 201.526 59.688 202.022 59.976C202.518 60.256 202.906 60.644 203.186 61.14C203.474 61.636 203.618 62.2 203.618 62.832C203.618 63.464 203.474 64.028 203.186 64.524C202.906 65.02 202.518 65.412 202.022 65.7C201.526 65.98 200.966 66.12 200.342 66.12ZM200.342 64.812C200.686 64.812 200.994 64.728 201.266 64.56C201.538 64.384 201.75 64.148 201.902 63.852C202.062 63.548 202.138 63.208 202.13 62.832C202.138 62.448 202.062 62.108 201.902 61.812C201.75 61.508 201.538 61.272 201.266 61.104C200.994 60.936 200.686 60.852 200.342 60.852C199.998 60.852 199.686 60.94 199.406 61.116C199.134 61.284 198.922 61.52 198.77 61.824C198.618 62.12 198.542 62.456 198.542 62.832C198.542 63.208 198.618 63.548 198.77 63.852C198.922 64.148 199.134 64.384 199.406 64.56C199.686 64.728 199.998 64.812 200.342 64.812ZM204.938 66V59.676H206.366L206.39 60.972L206.114 61.116C206.202 60.836 206.358 60.58 206.582 60.348C206.814 60.108 207.09 59.916 207.41 59.772C207.73 59.62 208.062 59.544 208.406 59.544C208.886 59.544 209.286 59.64 209.606 59.832C209.934 60.024 210.178 60.312 210.338 60.696C210.498 61.08 210.578 61.56 210.578 62.136V66H209.114V62.244C209.114 61.916 209.07 61.648 208.982 61.44C208.894 61.224 208.758 61.068 208.574 60.972C208.39 60.868 208.166 60.824 207.902 60.84C207.686 60.84 207.486 60.876 207.302 60.948C207.118 61.012 206.958 61.108 206.822 61.236C206.694 61.356 206.59 61.5 206.51 61.668C206.438 61.828 206.402 62.004 206.402 62.196V66H205.67C205.534 66 205.402 66 205.274 66C205.154 66 205.042 66 204.938 66ZM212.947 66V58.068H214.411V66H212.947ZM211.699 61.044V59.676H215.791V61.044H211.699ZM216.915 66V59.676H218.355L218.379 61.692L218.187 61.236C218.275 60.916 218.427 60.628 218.643 60.372C218.859 60.116 219.107 59.916 219.387 59.772C219.675 59.62 219.971 59.544 220.275 59.544C220.411 59.544 220.539 59.556 220.659 59.58C220.787 59.604 220.891 59.632 220.971 59.664L220.587 61.272C220.491 61.224 220.379 61.188 220.251 61.164C220.131 61.132 220.007 61.116 219.879 61.116C219.671 61.116 219.475 61.156 219.291 61.236C219.115 61.308 218.959 61.412 218.823 61.548C218.695 61.684 218.591 61.844 218.511 62.028C218.431 62.204 218.391 62.4 218.391 62.616V66H216.915ZM224.576 66.12C223.944 66.12 223.38 65.98 222.884 65.7C222.388 65.412 221.996 65.02 221.708 64.524C221.428 64.028 221.288 63.464 221.288 62.832C221.288 62.2 221.428 61.636 221.708 61.14C221.996 60.644 222.388 60.256 222.884 59.976C223.38 59.688 223.944 59.544 224.576 59.544C225.2 59.544 225.76 59.688 226.256 59.976C226.752 60.256 227.14 60.644 227.42 61.14C227.708 61.636 227.852 62.2 227.852 62.832C227.852 63.464 227.708 64.028 227.42 64.524C227.14 65.02 226.752 65.412 226.256 65.7C225.76 65.98 225.2 66.12 224.576 66.12ZM224.576 64.812C224.92 64.812 225.228 64.728 225.5 64.56C225.772 64.384 225.984 64.148 226.136 63.852C226.296 63.548 226.372 63.208 226.364 62.832C226.372 62.448 226.296 62.108 226.136 61.812C225.984 61.508 225.772 61.272 225.5 61.104C225.228 60.936 224.92 60.852 224.576 60.852C224.232 60.852 223.92 60.94 223.64 61.116C223.368 61.284 223.156 61.52 223.004 61.824C222.852 62.12 222.776 62.456 222.776 62.832C222.776 63.208 222.852 63.548 223.004 63.852C223.156 64.148 223.368 64.384 223.64 64.56C223.92 64.728 224.232 64.812 224.576 64.812ZM229.185 66V57.12H230.649V66H229.185ZM235.911 68.64V59.676H237.351L237.375 61.104L237.123 60.996C237.171 60.748 237.307 60.516 237.531 60.3C237.755 60.084 238.027 59.908 238.347 59.772C238.675 59.636 239.015 59.568 239.367 59.568C239.927 59.568 240.423 59.708 240.855 59.988C241.295 60.268 241.639 60.656 241.887 61.152C242.143 61.64 242.271 62.2 242.271 62.832C242.271 63.464 242.147 64.028 241.899 64.524C241.651 65.012 241.307 65.4 240.867 65.688C240.435 65.968 239.943 66.108 239.391 66.108C239.023 66.108 238.667 66.036 238.323 65.892C237.987 65.748 237.703 65.56 237.471 65.328C237.239 65.096 237.091 64.856 237.027 64.608L237.387 64.428V68.64H235.911ZM239.103 64.8C239.439 64.8 239.739 64.716 240.003 64.548C240.267 64.38 240.475 64.148 240.627 63.852C240.779 63.556 240.855 63.216 240.855 62.832C240.855 62.448 240.779 62.112 240.627 61.824C240.483 61.528 240.279 61.296 240.015 61.128C239.751 60.952 239.447 60.864 239.103 60.864C238.751 60.864 238.443 60.948 238.179 61.116C237.915 61.284 237.707 61.516 237.555 61.812C237.403 62.108 237.327 62.448 237.327 62.832C237.327 63.216 237.403 63.556 237.555 63.852C237.707 64.148 237.915 64.38 238.179 64.548C238.443 64.716 238.751 64.8 239.103 64.8ZM243.599 66V57.12H245.063V66H243.599ZM250.304 66V61.956C250.304 61.612 250.188 61.344 249.956 61.152C249.732 60.952 249.44 60.852 249.08 60.852C248.744 60.852 248.44 60.92 248.168 61.056C247.896 61.184 247.644 61.392 247.412 61.68L246.5 60.768C246.876 60.368 247.292 60.064 247.748 59.856C248.204 59.648 248.696 59.544 249.224 59.544C249.728 59.544 250.16 59.624 250.52 59.784C250.888 59.944 251.172 60.184 251.372 60.504C251.572 60.816 251.672 61.2 251.672 61.656V66H250.304ZM248.504 66.12C248.096 66.12 247.732 66.04 247.412 65.88C247.092 65.72 246.836 65.5 246.644 65.22C246.46 64.932 246.368 64.596 246.368 64.212C246.368 63.876 246.428 63.584 246.548 63.336C246.668 63.08 246.844 62.868 247.076 62.7C247.316 62.532 247.612 62.408 247.964 62.328C248.324 62.24 248.736 62.196 249.2 62.196H251.012L250.904 63.252H249.116C248.9 63.252 248.708 63.272 248.54 63.312C248.372 63.352 248.228 63.412 248.108 63.492C247.988 63.572 247.9 63.668 247.844 63.78C247.788 63.884 247.76 64.012 247.76 64.164C247.76 64.324 247.8 64.464 247.88 64.584C247.96 64.696 248.068 64.784 248.204 64.848C248.34 64.912 248.5 64.944 248.684 64.944C248.948 64.944 249.196 64.9 249.428 64.812C249.668 64.724 249.88 64.6 250.064 64.44C250.248 64.28 250.392 64.1 250.496 63.9L250.796 64.716C250.628 64.996 250.42 65.24 250.172 65.448C249.932 65.656 249.668 65.82 249.38 65.94C249.1 66.06 248.808 66.12 248.504 66.12ZM253.231 66V59.676H254.659L254.683 60.972L254.407 61.116C254.495 60.836 254.651 60.58 254.875 60.348C255.107 60.108 255.383 59.916 255.703 59.772C256.023 59.62 256.355 59.544 256.699 59.544C257.179 59.544 257.579 59.64 257.899 59.832C258.227 60.024 258.471 60.312 258.631 60.696C258.791 61.08 258.871 61.56 258.871 62.136V66H257.407V62.244C257.407 61.916 257.363 61.648 257.275 61.44C257.187 61.224 257.051 61.068 256.867 60.972C256.683 60.868 256.459 60.824 256.195 60.84C255.979 60.84 255.779 60.876 255.595 60.948C255.411 61.012 255.251 61.108 255.115 61.236C254.987 61.356 254.883 61.5 254.803 61.668C254.731 61.828 254.695 62.004 254.695 62.196V66H253.963C253.827 66 253.695 66 253.567 66C253.447 66 253.335 66 253.231 66ZM263.508 66.12C262.844 66.12 262.256 65.984 261.744 65.712C261.24 65.432 260.844 65.052 260.556 64.572C260.276 64.084 260.136 63.524 260.136 62.892C260.136 62.396 260.216 61.944 260.376 61.536C260.536 61.128 260.76 60.776 261.048 60.48C261.336 60.176 261.676 59.944 262.068 59.784C262.468 59.616 262.9 59.532 263.364 59.532C263.788 59.532 264.176 59.612 264.528 59.772C264.888 59.932 265.2 60.152 265.464 60.432C265.728 60.704 265.928 61.032 266.064 61.416C266.208 61.792 266.276 62.204 266.268 62.652L266.256 63.18H261.144L260.856 62.16H265.02L264.84 62.364V62.088C264.816 61.848 264.736 61.636 264.6 61.452C264.464 61.26 264.288 61.112 264.072 61.008C263.864 60.896 263.632 60.84 263.376 60.84C262.984 60.84 262.652 60.916 262.38 61.068C262.108 61.212 261.9 61.428 261.756 61.716C261.62 62.004 261.552 62.36 261.552 62.784C261.552 63.192 261.636 63.548 261.804 63.852C261.98 64.156 262.228 64.392 262.548 64.56C262.868 64.728 263.24 64.812 263.664 64.812C263.96 64.812 264.232 64.764 264.48 64.668C264.736 64.572 265.008 64.4 265.296 64.152L266.016 65.16C265.8 65.36 265.552 65.532 265.272 65.676C265 65.812 264.712 65.92 264.408 66C264.104 66.08 263.804 66.12 263.508 66.12Z" fill="black"/>
<path d="M174.646 167.354C174.842 167.549 175.158 167.549 175.354 167.354L178.536 164.172C178.731 163.976 178.731 163.66 178.536 163.464C178.34 163.269 178.024 163.269 177.828 163.464L175 166.293L172.172 163.464C171.976 163.269 171.66 163.269 171.464 163.464C171.269 163.66 171.269 163.976 171.464 164.172L174.646 167.354ZM175.354 137.646C175.158 137.451 174.842 137.451 174.646 137.646L171.464 140.828C171.269 141.024 171.269 141.34 171.464 141.536C171.66 141.731 171.976 141.731 172.172 141.536L175 138.707L177.828 141.536C178.024 141.731 178.34 141.731 178.536 141.536C178.731 141.34 178.731 141.024 178.536 140.828L175.354 137.646ZM175.5 167V138H174.5V167H175.5Z" fill="black"/>
<path d="M295.646 167.354C295.842 167.549 296.158 167.549 296.354 167.354L299.536 164.172C299.731 163.976 299.731 163.66 299.536 163.464C299.34 163.269 299.024 163.269 298.828 163.464L296 166.293L293.172 163.464C292.976 163.269 292.66 163.269 292.464 163.464C292.269 163.66 292.269 163.976 292.464 164.172L295.646 167.354ZM296.354 137.646C296.158 137.451 295.842 137.451 295.646 137.646L292.464 140.828C292.269 141.024 292.269 141.34 292.464 141.536C292.66 141.731 292.976 141.731 293.172 141.536L296 138.707L298.828 141.536C299.024 141.731 299.34 141.731 299.536 141.536C299.731 141.34 299.731 141.024 299.536 140.828L296.354 137.646ZM296.5 167V138H295.5V167H296.5Z" fill="black"/>
<path d="M236.646 167.354C236.842 167.549 237.158 167.549 237.354 167.354L240.536 164.172C240.731 163.976 240.731 163.66 240.536 163.464C240.34 163.269 240.024 163.269 239.828 163.464L237 166.293L234.172 163.464C233.976 163.269 233.66 163.269 233.464 163.464C233.269 163.66 233.269 163.976 233.464 164.172L236.646 167.354ZM237.354 108.646C237.158 108.451 236.842 108.451 236.646 108.646L233.464 111.828C233.269 112.024 233.269 112.34 233.464 112.536C233.66 112.731 233.976 112.731 234.172 112.536L237 109.707L239.828 112.536C240.024 112.731 240.34 112.731 240.536 112.536C240.731 112.34 240.731 112.024 240.536 111.828L237.354 108.646ZM237.5 167V109H236.5V167H237.5Z" fill="black"/>
<path d="M147 283L233.801 187.218" stroke="black"/>
<path d="M316 280L234 187" stroke="black"/>
<path d="M234 280L234 187" stroke="black"/>
<rect x="289" y="279" width="75" height="57" rx="19" fill="#242F7D"/>
<path d="M328.023 307.368H326.694C326.657 307.15 326.587 306.957 326.485 306.789C326.383 306.618 326.256 306.474 326.105 306.355C325.953 306.237 325.781 306.148 325.586 306.089C325.395 306.028 325.188 305.997 324.965 305.997C324.57 305.997 324.219 306.096 323.914 306.295C323.608 306.492 323.369 306.78 323.197 307.162C323.024 307.54 322.937 308.003 322.937 308.55C322.937 309.106 323.024 309.575 323.197 309.956C323.372 310.335 323.611 310.622 323.914 310.816C324.219 311.007 324.568 311.103 324.961 311.103C325.179 311.103 325.383 311.075 325.572 311.018C325.764 310.959 325.936 310.873 326.087 310.759C326.241 310.645 326.37 310.506 326.474 310.34C326.581 310.174 326.654 309.985 326.694 309.772L328.023 309.779C327.973 310.124 327.865 310.449 327.699 310.752C327.536 311.055 327.322 311.322 327.057 311.554C326.791 311.784 326.481 311.964 326.126 312.094C325.771 312.222 325.377 312.286 324.944 312.286C324.305 312.286 323.734 312.138 323.232 311.842C322.73 311.546 322.335 311.119 322.046 310.56C321.757 310.001 321.613 309.331 321.613 308.55C321.613 307.766 321.758 307.096 322.05 306.54C322.341 305.981 322.737 305.554 323.239 305.258C323.741 304.962 324.309 304.814 324.944 304.814C325.349 304.814 325.725 304.871 326.073 304.985C326.421 305.098 326.731 305.265 327.003 305.485C327.276 305.703 327.499 305.971 327.675 306.288C327.852 306.603 327.968 306.963 328.023 307.368ZM329.229 312.186V304.914H330.547V311.082H333.75V312.186H329.229ZM336.211 304.914V312.186H334.893V304.914H336.211Z" fill="white"/>
<rect x="199" y="279" width="75" height="57" rx="19" fill="#242F7D"/>
<path d="M229.443 312H228.037L230.597 304.727H232.224L234.788 312H233.381L231.439 306.219H231.382L229.443 312ZM229.489 309.148H233.325V310.207H229.489V309.148ZM235.746 312V304.727H238.473C239.032 304.727 239.5 304.831 239.879 305.04C240.26 305.248 240.548 305.535 240.742 305.899C240.939 306.261 241.037 306.673 241.037 307.135C241.037 307.601 240.939 308.016 240.742 308.378C240.546 308.74 240.256 309.025 239.872 309.234C239.489 309.44 239.016 309.543 238.455 309.543H236.648V308.46H238.278C238.604 308.46 238.872 308.403 239.08 308.289C239.289 308.175 239.442 308.019 239.542 307.82C239.644 307.621 239.695 307.393 239.695 307.135C239.695 306.877 239.644 306.65 239.542 306.453C239.442 306.257 239.287 306.104 239.077 305.995C238.868 305.884 238.6 305.828 238.271 305.828H237.063V312H235.746ZM243.499 304.727V312H242.181V304.727H243.499Z" fill="white"/>
<rect x="137" y="80" width="30" height="29" rx="14" fill="white"/>
<path d="M153.18 93.669C153.271 93.7754 153.31 93.929 153.284 94.0712L153.036 95.0527C153.01 95.2062 152.893 95.3249 152.751 95.3956L151.749 95.8213C151.606 95.892 151.424 95.892 151.281 95.8213L150.279 95.3956C150.136 95.3249 150.019 95.2062 149.993 95.0527L149.746 94.0712C149.72 93.929 149.759 93.7754 149.85 93.669L150.552 92.8768C150.643 92.7582 150.799 92.6875 150.968 92.6875H152.061C152.23 92.6875 152.386 92.7582 152.477 92.8768L153.18 93.669Z" fill="#0277BD"/>
<path d="M152.675 86.4556L152.718 86.7603C152.838 87.6029 152.924 88.4544 153.01 89.2969C153.044 89.6325 153.079 89.9608 153.104 90.2963C153.121 90.5539 153.439 90.6863 153.671 90.5384C153.964 90.3434 154.265 90.1484 154.574 89.9608C155.347 89.4846 156.111 89.0085 156.901 88.5478L157.193 88.3837C155.965 87.3689 154.402 86.6742 152.675 86.4556ZM152.675 86.4556L152.718 86.7603C152.838 87.6029 152.924 88.4544 153.01 89.2969C153.044 89.6325 153.079 89.9608 153.104 90.2963C153.121 90.5539 153.439 90.6863 153.671 90.5384C153.964 90.3434 154.265 90.1484 154.574 89.9608C155.347 89.4846 156.111 89.0085 156.901 88.5478L157.193 88.3837C155.965 87.3689 154.402 86.6742 152.675 86.4556ZM152.675 86.4556L152.718 86.7603C152.838 87.6029 152.924 88.4544 153.01 89.2969C153.044 89.6325 153.079 89.9608 153.104 90.2963C153.121 90.5539 153.439 90.6863 153.671 90.5384C153.964 90.3434 154.265 90.1484 154.574 89.9608C155.347 89.4846 156.111 89.0085 156.901 88.5478L157.193 88.3837C155.965 87.3689 154.402 86.6742 152.675 86.4556ZM152.675 86.4556L152.718 86.7603C152.838 87.6029 152.924 88.4544 153.01 89.2969C153.044 89.6325 153.079 89.9608 153.104 90.2963C153.121 90.5539 153.439 90.6863 153.671 90.5384C153.964 90.3434 154.265 90.1484 154.574 89.9608C155.347 89.4846 156.111 89.0085 156.901 88.5478L157.193 88.3837C155.965 87.3689 154.402 86.6742 152.675 86.4556ZM152.675 86.4556L152.718 86.7603C152.838 87.6029 152.924 88.4544 153.01 89.2969C153.044 89.6325 153.079 89.9608 153.104 90.2963C153.121 90.5539 153.439 90.6863 153.671 90.5384C153.964 90.3434 154.265 90.1484 154.574 89.9608C155.347 89.4846 156.111 89.0085 156.901 88.5478L157.193 88.3837C155.965 87.3689 154.402 86.6742 152.675 86.4556ZM158.773 90.1159L158.541 90.3426C157.897 90.9674 157.236 91.5679 156.574 92.1691C156.153 92.5591 155.698 92.9337 155.26 93.3164C155.844 93.4488 156.428 93.5894 157.012 93.7454C157.914 93.9794 158.807 94.2061 159.7 94.4709L160.018 94.5644C160.027 94.4393 160.027 94.3068 160.027 94.1744C160.027 92.6843 159.572 91.2949 158.773 90.1159ZM158.773 90.1159L158.541 90.3426C157.897 90.9674 157.236 91.5679 156.574 92.1691C156.153 92.5591 155.698 92.9337 155.26 93.3164C155.844 93.4488 156.428 93.5894 157.012 93.7454C157.914 93.9794 158.807 94.2061 159.7 94.4709L160.018 94.5644C160.027 94.4393 160.027 94.3068 160.027 94.1744C160.027 92.6843 159.572 91.2949 158.773 90.1159ZM152.675 86.4556L152.718 86.7603C152.838 87.6029 152.924 88.4544 153.01 89.2969C153.044 89.6325 153.079 89.9608 153.104 90.2963C153.121 90.5539 153.439 90.6863 153.671 90.5384C153.964 90.3434 154.265 90.1484 154.574 89.9608C155.347 89.4846 156.111 89.0085 156.901 88.5478L157.193 88.3837C155.965 87.3689 154.402 86.6742 152.675 86.4556ZM152.675 86.4556L152.718 86.7603C152.838 87.6029 152.924 88.4544 153.01 89.2969C153.044 89.6325 153.079 89.9608 153.104 90.2963C153.121 90.5539 153.439 90.6863 153.671 90.5384C153.964 90.3434 154.265 90.1484 154.574 89.9608C155.347 89.4846 156.111 89.0085 156.901 88.5478L157.193 88.3837C155.965 87.3689 154.402 86.6742 152.675 86.4556ZM159.228 96.7663C158.292 96.7118 157.364 96.6338 156.428 96.5558C156.024 96.5249 155.629 96.4859 155.226 96.4461C154.968 96.4153 154.762 96.6493 154.857 96.8751C155.003 97.2261 155.14 97.5779 155.278 97.9371C155.579 98.7333 155.888 99.5369 156.171 100.349L156.265 100.63C157.759 99.701 158.919 98.3588 159.528 96.7817L159.228 96.7663ZM158.773 90.1159L158.541 90.3426C157.897 90.9674 157.236 91.5679 156.574 92.1691C156.153 92.5591 155.698 92.9337 155.26 93.3164C155.844 93.4488 156.428 93.5894 157.012 93.7454C157.914 93.9794 158.807 94.2061 159.7 94.4709L160.018 94.5644C160.027 94.4393 160.027 94.3068 160.027 94.1744C160.027 92.6843 159.572 91.2949 158.773 90.1159ZM158.773 90.1159L158.541 90.3426C157.897 90.9674 157.236 91.5679 156.574 92.1691C156.153 92.5591 155.698 92.9337 155.26 93.3164C155.844 93.4488 156.428 93.5894 157.012 93.7454C157.914 93.9794 158.807 94.2061 159.7 94.4709L160.018 94.5644C160.027 94.4393 160.027 94.3068 160.027 94.1744C160.027 92.6843 159.572 91.2949 158.773 90.1159ZM159.228 96.7663C158.292 96.7118 157.364 96.6338 156.428 96.5558C156.024 96.5249 155.629 96.4859 155.226 96.4461C154.968 96.4153 154.762 96.6493 154.857 96.8751C155.003 97.2261 155.14 97.5779 155.278 97.9371C155.579 98.7333 155.888 99.5369 156.171 100.349L156.265 100.63C157.759 99.701 158.919 98.3588 159.528 96.7817L159.228 96.7663ZM152.675 86.4556L152.718 86.7603C152.838 87.6029 152.924 88.4544 153.01 89.2969C153.044 89.6325 153.079 89.9608 153.104 90.2963C153.121 90.5539 153.439 90.6863 153.671 90.5384C153.964 90.3434 154.265 90.1484 154.574 89.9608C155.347 89.4846 156.111 89.0085 156.901 88.5478L157.193 88.3837C155.965 87.3689 154.402 86.6742 152.675 86.4556ZM152.675 86.4556L152.718 86.7603C152.838 87.6029 152.924 88.4544 153.01 89.2969C153.044 89.6325 153.079 89.9608 153.104 90.2963C153.121 90.5539 153.439 90.6863 153.671 90.5384C153.964 90.3434 154.265 90.1484 154.574 89.9608C155.347 89.4846 156.111 89.0085 156.901 88.5478L157.193 88.3837C155.965 87.3689 154.402 86.6742 152.675 86.4556ZM159.228 96.7663C158.292 96.7118 157.364 96.6338 156.428 96.5558C156.024 96.5249 155.629 96.4859 155.226 96.4461C154.968 96.4153 154.762 96.6493 154.857 96.8751C155.003 97.2261 155.14 97.5779 155.278 97.9371C155.579 98.7333 155.888 99.5369 156.171 100.349L156.265 100.63C157.759 99.701 158.919 98.3588 159.528 96.7817L159.228 96.7663ZM158.773 90.1159L158.541 90.3426C157.897 90.9674 157.236 91.5679 156.574 92.1691C156.153 92.5591 155.698 92.9337 155.26 93.3164C155.844 93.4488 156.428 93.5894 157.012 93.7454C157.914 93.9794 158.807 94.2061 159.7 94.4709L160.018 94.5644C160.027 94.4393 160.027 94.3068 160.027 94.1744C160.027 92.6843 159.572 91.2949 158.773 90.1159ZM158.773 90.1159L158.541 90.3426C157.897 90.9674 157.236 91.5679 156.574 92.1691C156.153 92.5591 155.698 92.9337 155.26 93.3164C155.844 93.4488 156.428 93.5894 157.012 93.7454C157.914 93.9794 158.807 94.2061 159.7 94.4709L160.018 94.5644C160.027 94.4393 160.027 94.3068 160.027 94.1744C160.027 92.6843 159.572 91.2949 158.773 90.1159ZM159.228 96.7663C158.292 96.7118 157.364 96.6338 156.428 96.5558C156.024 96.5249 155.629 96.4859 155.226 96.4461C154.968 96.4153 154.762 96.6493 154.857 96.8751C155.003 97.2261 155.14 97.5779 155.278 97.9371C155.579 98.7333 155.888 99.5369 156.171 100.349L156.265 100.63C157.759 99.701 158.919 98.3588 159.528 96.7817L159.228 96.7663ZM152.675 86.4556L152.718 86.7603C152.838 87.6029 152.924 88.4544 153.01 89.2969C153.044 89.6325 153.079 89.9608 153.104 90.2963C153.121 90.5539 153.439 90.6863 153.671 90.5384C153.964 90.3434 154.265 90.1484 154.574 89.9608C155.347 89.4846 156.111 89.0085 156.901 88.5478L157.193 88.3837C155.965 87.3689 154.402 86.6742 152.675 86.4556ZM153.835 101.316C153.336 100.598 152.872 99.857 152.408 99.1233C152.202 98.8032 152.004 98.4831 151.815 98.1556C151.678 97.9289 151.325 97.9289 151.188 98.1556C150.99 98.4912 150.784 98.8194 150.57 99.1388C150.098 99.8724 149.625 100.606 149.127 101.324L148.912 101.636C149.711 101.863 150.561 101.98 151.437 101.98C152.339 101.98 153.216 101.855 154.032 101.613L153.835 101.316ZM152.675 86.4556L152.718 86.7603C152.838 87.6029 152.924 88.4544 153.01 89.2969C153.044 89.6325 153.079 89.9608 153.104 90.2963C153.121 90.5539 153.439 90.6863 153.671 90.5384C153.964 90.3434 154.265 90.1484 154.574 89.9608C155.347 89.4846 156.111 89.0085 156.901 88.5478L157.193 88.3837C155.965 87.3689 154.402 86.6742 152.675 86.4556ZM159.228 96.7663C158.292 96.7118 157.364 96.6338 156.428 96.5558C156.024 96.5249 155.629 96.4859 155.226 96.4461C154.968 96.4153 154.762 96.6493 154.857 96.8751C155.003 97.2261 155.14 97.5779 155.278 97.9371C155.579 98.7333 155.888 99.5369 156.171 100.349L156.265 100.63C157.759 99.701 158.919 98.3588 159.528 96.7817L159.228 96.7663ZM158.773 90.1159L158.541 90.3426C157.897 90.9674 157.236 91.5679 156.574 92.1691C156.153 92.5591 155.698 92.9337 155.26 93.3164C155.844 93.4488 156.428 93.5894 157.012 93.7454C157.914 93.9794 158.807 94.2061 159.7 94.4709L160.018 94.5644C160.027 94.4393 160.027 94.3068 160.027 94.1744C160.027 92.6843 159.572 91.2949 158.773 90.1159ZM158.773 90.1159L158.541 90.3426C157.897 90.9674 157.236 91.5679 156.574 92.1691C156.153 92.5591 155.698 92.9337 155.26 93.3164C155.844 93.4488 156.428 93.5894 157.012 93.7454C157.914 93.9794 158.807 94.2061 159.7 94.4709L160.018 94.5644C160.027 94.4393 160.027 94.3068 160.027 94.1744C160.027 92.6843 159.572 91.2949 158.773 90.1159ZM159.228 96.7663C158.292 96.7118 157.364 96.6338 156.428 96.5558C156.024 96.5249 155.629 96.4859 155.226 96.4461C154.968 96.4153 154.762 96.6493 154.857 96.8751C155.003 97.2261 155.14 97.5779 155.278 97.9371C155.579 98.7333 155.888 99.5369 156.171 100.349L156.265 100.63C157.759 99.701 158.919 98.3588 159.528 96.7817L159.228 96.7663ZM152.675 86.4556L152.718 86.7603C152.838 87.6029 152.924 88.4544 153.01 89.2969C153.044 89.6325 153.079 89.9608 153.104 90.2963C153.121 90.5539 153.439 90.6863 153.671 90.5384C153.964 90.3434 154.265 90.1484 154.574 89.9608C155.347 89.4846 156.111 89.0085 156.901 88.5478L157.193 88.3837C155.965 87.3689 154.402 86.6742 152.675 86.4556ZM153.835 101.316C153.336 100.598 152.872 99.857 152.408 99.1233C152.202 98.8032 152.004 98.4831 151.815 98.1556C151.678 97.9289 151.325 97.9289 151.188 98.1556C150.99 98.4912 150.784 98.8194 150.57 99.1388C150.098 99.8724 149.625 100.606 149.127 101.324L148.912 101.636C149.711 101.863 150.561 101.98 151.437 101.98C152.339 101.98 153.216 101.855 154.032 101.613L153.835 101.316ZM147.805 96.3373C147.401 96.3844 147.006 96.4388 146.602 96.4778C145.666 96.5794 144.747 96.6809 143.811 96.7589L143.347 96.7979C143.974 98.3904 145.159 99.7481 146.68 100.67L146.8 100.341C147.092 99.5296 147.401 98.7333 147.719 97.9298C147.865 97.5398 148.02 97.1571 148.183 96.7671C148.286 96.5396 148.071 96.2983 147.805 96.3373ZM153.835 101.316C153.336 100.598 152.872 99.857 152.408 99.1233C152.202 98.8032 152.004 98.4831 151.815 98.1556C151.678 97.9289 151.325 97.9289 151.188 98.1556C150.99 98.4912 150.784 98.8194 150.57 99.1388C150.098 99.8724 149.625 100.606 149.127 101.324L148.912 101.636C149.711 101.863 150.561 101.98 151.437 101.98C152.339 101.98 153.216 101.855 154.032 101.613L153.835 101.316ZM152.675 86.4556L152.718 86.7603C152.838 87.6029 152.924 88.4544 153.01 89.2969C153.044 89.6325 153.079 89.9608 153.104 90.2963C153.121 90.5539 153.439 90.6863 153.671 90.5384C153.964 90.3434 154.265 90.1484 154.574 89.9608C155.347 89.4846 156.111 89.0085 156.901 88.5478L157.193 88.3837C155.965 87.3689 154.402 86.6742 152.675 86.4556ZM159.228 96.7663C158.292 96.7118 157.364 96.6338 156.428 96.5558C156.024 96.5249 155.629 96.4859 155.226 96.4461C154.968 96.4153 154.762 96.6493 154.857 96.8751C155.003 97.2261 155.14 97.5779 155.278 97.9371C155.579 98.7333 155.888 99.5369 156.171 100.349L156.265 100.63C157.759 99.701 158.919 98.3588 159.528 96.7817L159.228 96.7663ZM158.773 90.1159L158.541 90.3426C157.897 90.9674 157.236 91.5679 156.574 92.1691C156.153 92.5591 155.698 92.9337 155.26 93.3164C155.844 93.4488 156.428 93.5894 157.012 93.7454C157.914 93.9794 158.807 94.2061 159.7 94.4709L160.018 94.5644C160.027 94.4393 160.027 94.3068 160.027 94.1744C160.027 92.6843 159.572 91.2949 158.773 90.1159ZM158.773 90.1159L158.541 90.3426C157.897 90.9674 157.236 91.5679 156.574 92.1691C156.153 92.5591 155.698 92.9337 155.26 93.3164C155.844 93.4488 156.428 93.5894 157.012 93.7454C157.914 93.9794 158.807 94.2061 159.7 94.4709L160.018 94.5644C160.027 94.4393 160.027 94.3068 160.027 94.1744C160.027 92.6843 159.572 91.2949 158.773 90.1159ZM159.228 96.7663C158.292 96.7118 157.364 96.6338 156.428 96.5558C156.024 96.5249 155.629 96.4859 155.226 96.4461C154.968 96.4153 154.762 96.6493 154.857 96.8751C155.003 97.2261 155.14 97.5779 155.278 97.9371C155.579 98.7333 155.888 99.5369 156.171 100.349L156.265 100.63C157.759 99.701 158.919 98.3588 159.528 96.7817L159.228 96.7663ZM152.675 86.4556L152.718 86.7603C152.838 87.6029 152.924 88.4544 153.01 89.2969C153.044 89.6325 153.079 89.9608 153.104 90.2963C153.121 90.5539 153.439 90.6863 153.671 90.5384C153.964 90.3434 154.265 90.1484 154.574 89.9608C155.347 89.4846 156.111 89.0085 156.901 88.5478L157.193 88.3837C155.965 87.3689 154.402 86.6742 152.675 86.4556ZM153.835 101.316C153.336 100.598 152.872 99.857 152.408 99.1233C152.202 98.8032 152.004 98.4831 151.815 98.1556C151.678 97.9289 151.325 97.9289 151.188 98.1556C150.99 98.4912 150.784 98.8194 150.57 99.1388C150.098 99.8724 149.625 100.606 149.127 101.324L148.912 101.636C149.711 101.863 150.561 101.98 151.437 101.98C152.339 101.98 153.216 101.855 154.032 101.613L153.835 101.316ZM147.805 96.3373C147.401 96.3844 147.006 96.4388 146.602 96.4778C145.666 96.5794 144.747 96.6809 143.811 96.7589L143.347 96.7979C143.974 98.3904 145.159 99.7481 146.68 100.67L146.8 100.341C147.092 99.5296 147.401 98.7333 147.719 97.9298C147.865 97.5398 148.02 97.1571 148.183 96.7671C148.286 96.5396 148.071 96.2983 147.805 96.3373ZM147.805 96.3373C147.401 96.3844 147.006 96.4388 146.602 96.4778C145.666 96.5794 144.747 96.6809 143.811 96.7589L143.347 96.7979C143.974 98.3904 145.159 99.7481 146.68 100.67L146.8 100.341C147.092 99.5296 147.401 98.7333 147.719 97.9298C147.865 97.5398 148.02 97.1571 148.183 96.7671C148.286 96.5396 148.071 96.2983 147.805 96.3373ZM153.835 101.316C153.336 100.598 152.872 99.857 152.408 99.1233C152.202 98.8032 152.004 98.4831 151.815 98.1556C151.678 97.9289 151.325 97.9289 151.188 98.1556C150.99 98.4912 150.784 98.8194 150.57 99.1388C150.098 99.8724 149.625 100.606 149.127 101.324L148.912 101.636C149.711 101.863 150.561 101.98 151.437 101.98C152.339 101.98 153.216 101.855 154.032 101.613L153.835 101.316ZM152.675 86.4556L152.718 86.7603C152.838 87.6029 152.924 88.4544 153.01 89.2969C153.044 89.6325 153.079 89.9608 153.104 90.2963C153.121 90.5539 153.439 90.6863 153.671 90.5384C153.964 90.3434 154.265 90.1484 154.574 89.9608C155.347 89.4846 156.111 89.0085 156.901 88.5478L157.193 88.3837C155.965 87.3689 154.402 86.6742 152.675 86.4556ZM159.228 96.7663C158.292 96.7118 157.364 96.6338 156.428 96.5558C156.024 96.5249 155.629 96.4859 155.226 96.4461C154.968 96.4153 154.762 96.6493 154.857 96.8751C155.003 97.2261 155.14 97.5779 155.278 97.9371C155.579 98.7333 155.888 99.5369 156.171 100.349L156.265 100.63C157.759 99.701 158.919 98.3588 159.528 96.7817L159.228 96.7663ZM158.773 90.1159L158.541 90.3426C157.897 90.9674 157.236 91.5679 156.574 92.1691C156.153 92.5591 155.698 92.9337 155.26 93.3164C155.844 93.4488 156.428 93.5894 157.012 93.7454C157.914 93.9794 158.807 94.2061 159.7 94.4709L160.018 94.5644C160.027 94.4393 160.027 94.3068 160.027 94.1744C160.027 92.6843 159.572 91.2949 158.773 90.1159ZM158.773 90.1159L158.541 90.3426C157.897 90.9674 157.236 91.5679 156.574 92.1691C156.153 92.5591 155.698 92.9337 155.26 93.3164C155.844 93.4488 156.428 93.5894 157.012 93.7454C157.914 93.9794 158.807 94.2061 159.7 94.4709L160.018 94.5644C160.027 94.4393 160.027 94.3068 160.027 94.1744C160.027 92.6843 159.572 91.2949 158.773 90.1159ZM159.228 96.7663C158.292 96.7118 157.364 96.6338 156.428 96.5558C156.024 96.5249 155.629 96.4859 155.226 96.4461C154.968 96.4153 154.762 96.6493 154.857 96.8751C155.003 97.2261 155.14 97.5779 155.278 97.9371C155.579 98.7333 155.888 99.5369 156.171 100.349L156.265 100.63C157.759 99.701 158.919 98.3588 159.528 96.7817L159.228 96.7663ZM152.675 86.4556L152.718 86.7603C152.838 87.6029 152.924 88.4544 153.01 89.2969C153.044 89.6325 153.079 89.9608 153.104 90.2963C153.121 90.5539 153.439 90.6863 153.671 90.5384C153.964 90.3434 154.265 90.1484 154.574 89.9608C155.347 89.4846 156.111 89.0085 156.901 88.5478L157.193 88.3837C155.965 87.3689 154.402 86.6742 152.675 86.4556ZM153.835 101.316C153.336 100.598 152.872 99.857 152.408 99.1233C152.202 98.8032 152.004 98.4831 151.815 98.1556C151.678 97.9289 151.325 97.9289 151.188 98.1556C150.99 98.4912 150.784 98.8194 150.57 99.1388C150.098 99.8724 149.625 100.606 149.127 101.324L148.912 101.636C149.711 101.863 150.561 101.98 151.437 101.98C152.339 101.98 153.216 101.855 154.032 101.613L153.835 101.316ZM147.805 96.3373C147.401 96.3844 147.006 96.4388 146.602 96.4778C145.666 96.5794 144.747 96.6809 143.811 96.7589L143.347 96.7979C143.974 98.3904 145.159 99.7481 146.68 100.67L146.8 100.341C147.092 99.5296 147.401 98.7333 147.719 97.9298C147.865 97.5398 148.02 97.1571 148.183 96.7671C148.286 96.5396 148.071 96.2983 147.805 96.3373ZM147.324 92.7777C147.032 92.5356 146.748 92.2934 146.465 92.0359C145.794 91.4346 145.133 90.8415 144.48 90.2248L144.205 89.9673C143.346 91.1771 142.848 92.6209 142.848 94.1744C142.848 94.3231 142.857 94.4628 142.857 94.6034L143.261 94.4783C144.146 94.1898 145.039 93.9396 145.923 93.6747C146.344 93.5496 146.766 93.4407 147.186 93.3237C147.453 93.2538 147.53 92.9491 147.324 92.7777ZM147.805 96.3373C147.401 96.3844 147.006 96.4388 146.602 96.4778C145.666 96.5794 144.747 96.6809 143.811 96.7589L143.347 96.7979C143.974 98.3904 145.159 99.7481 146.68 100.67L146.8 100.341C147.092 99.5296 147.401 98.7333 147.719 97.9298C147.865 97.5398 148.02 97.1571 148.183 96.7671C148.286 96.5396 148.071 96.2983 147.805 96.3373ZM153.835 101.316C153.336 100.598 152.872 99.857 152.408 99.1233C152.202 98.8032 152.004 98.4831 151.815 98.1556C151.678 97.9289 151.325 97.9289 151.188 98.1556C150.99 98.4912 150.784 98.8194 150.57 99.1388C150.098 99.8724 149.625 100.606 149.127 101.324L148.912 101.636C149.711 101.863 150.561 101.98 151.437 101.98C152.339 101.98 153.216 101.855 154.032 101.613L153.835 101.316ZM152.675 86.4556L152.718 86.7603C152.838 87.6029 152.924 88.4544 153.01 89.2969C153.044 89.6325 153.079 89.9608 153.104 90.2963C153.121 90.5539 153.439 90.6863 153.671 90.5384C153.964 90.3434 154.265 90.1484 154.574 89.9608C155.347 89.4846 156.111 89.0085 156.901 88.5478L157.193 88.3837C155.965 87.3689 154.402 86.6742 152.675 86.4556ZM159.228 96.7663C158.292 96.7118 157.364 96.6338 156.428 96.5558C156.024 96.5249 155.629 96.4859 155.226 96.4461C154.968 96.4153 154.762 96.6493 154.857 96.8751C155.003 97.2261 155.14 97.5779 155.278 97.9371C155.579 98.7333 155.888 99.5369 156.171 100.349L156.265 100.63C157.759 99.701 158.919 98.3588 159.528 96.7817L159.228 96.7663ZM158.773 90.1159L158.541 90.3426C157.897 90.9674 157.236 91.5679 156.574 92.1691C156.153 92.5591 155.698 92.9337 155.26 93.3164C155.844 93.4488 156.428 93.5894 157.012 93.7454C157.914 93.9794 158.807 94.2061 159.7 94.4709L160.018 94.5644C160.027 94.4393 160.027 94.3068 160.027 94.1744C160.027 92.6843 159.572 91.2949 158.773 90.1159ZM158.773 90.1159L158.541 90.3426C157.897 90.9674 157.236 91.5679 156.574 92.1691C156.153 92.5591 155.698 92.9337 155.26 93.3164C155.844 93.4488 156.428 93.5894 157.012 93.7454C157.914 93.9794 158.807 94.2061 159.7 94.4709L160.018 94.5644C160.027 94.4393 160.027 94.3068 160.027 94.1744C160.027 92.6843 159.572 91.2949 158.773 90.1159ZM156.428 96.5558C156.024 96.5249 155.629 96.4859 155.226 96.4461C154.968 96.4153 154.762 96.6493 154.857 96.8751C155.003 97.2261 155.14 97.5779 155.278 97.9371C155.579 98.7333 155.888 99.5369 156.171 100.349L156.265 100.63C157.759 99.701 158.919 98.3588 159.528 96.7817L159.227 96.7663C158.292 96.7118 157.365 96.6338 156.428 96.5558ZM157.193 88.3837C155.965 87.3689 154.402 86.6742 152.675 86.4556L152.718 86.7603C152.838 87.6029 152.924 88.4544 153.01 89.2969C153.044 89.6325 153.079 89.9608 153.104 90.2963C153.121 90.5539 153.439 90.6863 153.671 90.5384C153.964 90.3434 154.265 90.1484 154.574 89.9608C155.347 89.4846 156.111 89.0085 156.901 88.5478L157.193 88.3837ZM152.408 99.1233C152.202 98.8032 152.004 98.4831 151.815 98.1556C151.678 97.9289 151.325 97.9289 151.188 98.1556C150.99 98.4912 150.784 98.8194 150.57 99.1388C150.098 99.8724 149.625 100.606 149.127 101.324L148.912 101.636C149.711 101.863 150.561 101.98 151.437 101.98C152.339 101.98 153.216 101.855 154.032 101.613L153.834 101.316C153.336 100.599 152.872 99.857 152.408 99.1233ZM147.805 96.3373C147.401 96.3844 147.006 96.4388 146.602 96.4778C145.666 96.5794 144.747 96.6809 143.811 96.7589L143.347 96.7979C143.974 98.3904 145.159 99.7481 146.68 100.67L146.8 100.341C147.092 99.5296 147.401 98.7333 147.719 97.9298C147.865 97.5398 148.02 97.1571 148.183 96.7671C148.286 96.5396 148.071 96.2983 147.805 96.3373ZM147.187 93.3237C147.453 93.2538 147.531 92.9491 147.324 92.7777C147.032 92.5356 146.748 92.2934 146.465 92.0359C145.794 91.4346 145.133 90.8415 144.48 90.2248L144.205 89.9673C143.346 91.1771 142.848 92.6209 142.848 94.1744C142.848 94.3231 142.857 94.4628 142.857 94.6034L143.261 94.4783C144.146 94.1898 145.039 93.9396 145.923 93.6747C146.344 93.5504 146.766 93.4415 147.187 93.3237ZM170.103 96.8914L166.821 83.7939C166.675 83.2089 166.246 82.7246 165.653 82.4589L152.374 76.6366C151.781 76.3709 151.094 76.3709 150.502 76.6366L137.223 82.4589C136.63 82.7246 136.201 83.2081 136.055 83.7939L132.773 96.8914C132.627 97.4764 132.782 98.0858 133.186 98.5464L142.376 109.052C142.788 109.52 143.415 109.794 144.068 109.794H158.807C159.46 109.794 160.087 109.521 160.5 109.052L169.69 98.5464C170.094 98.0849 170.249 97.4764 170.103 96.8914ZM165.516 97.4374C165.258 97.4918 165.001 97.4374 164.795 97.3204C164.374 97.0628 163.928 96.9223 163.481 96.8053C163.258 96.7508 163.026 96.7037 162.803 96.6728C162.58 96.6103 162.322 96.6728 162.064 96.7817C161.806 96.9141 161.574 96.8914 161.334 96.8751H161.308C160.569 99.0998 158.945 100.981 156.798 102.175V102.183C156.867 102.386 156.944 102.581 156.875 102.847C156.815 103.105 156.806 103.339 156.927 103.526C157.021 103.714 157.125 103.909 157.236 104.089C157.468 104.455 157.726 104.822 158.103 105.127C158.481 105.447 158.507 105.978 158.163 106.329C157.811 106.672 157.227 106.695 156.84 106.383C156.642 106.219 156.539 106 156.539 105.774C156.522 105.314 156.393 104.908 156.238 104.502C156.161 104.307 156.075 104.112 155.972 103.917C155.895 103.714 155.689 103.573 155.439 103.441C155.199 103.324 155.078 103.16 154.958 102.98C153.859 103.348 152.674 103.543 151.436 103.543C150.217 103.543 149.049 103.348 147.966 102.997C147.863 103.168 147.743 103.324 147.502 103.442C147.253 103.567 147.047 103.715 146.97 103.918C146.867 104.106 146.772 104.301 146.695 104.496C146.54 104.902 146.403 105.307 146.394 105.768C146.377 106.236 145.939 106.603 145.424 106.588C144.908 106.572 144.504 106.182 144.521 105.714C144.53 105.471 144.65 105.261 144.831 105.112C145.209 104.8 145.467 104.441 145.707 104.082C145.819 103.894 145.922 103.707 146.016 103.512C146.136 103.333 146.128 103.091 146.076 102.833C146.016 102.591 146.076 102.396 146.145 102.217C143.988 101.038 142.339 99.1648 141.584 96.9401C141.386 96.9556 141.198 96.9556 140.974 96.854C140.708 96.7524 140.459 96.6899 140.235 96.7606C140.003 96.7996 139.78 96.854 139.557 96.9166C139.11 97.049 138.672 97.1977 138.26 97.4626C137.839 97.7356 137.254 97.6421 136.954 97.2594C136.662 96.8768 136.756 96.3462 137.177 96.0805C137.392 95.9399 137.658 95.8928 137.899 95.9318C138.389 96.0253 138.861 95.9944 139.325 95.9399C139.557 95.9164 139.789 95.8774 140.012 95.8229C140.244 95.8075 140.45 95.6515 140.639 95.4565C140.802 95.2851 140.991 95.2144 141.18 95.1518C141.146 94.8317 141.128 94.5043 141.128 94.176C141.128 92.1781 141.815 90.328 142.992 88.8062C142.837 88.6656 142.691 88.5251 142.631 88.2756C142.554 88.0262 142.451 87.8076 142.253 87.6906C142.073 87.5501 141.892 87.4249 141.703 87.3079C141.308 87.0739 140.904 86.8554 140.423 86.7229C139.925 86.5978 139.633 86.1217 139.779 85.6773C139.925 85.2247 140.44 84.9671 140.938 85.0923C141.187 85.1621 141.393 85.3189 141.505 85.5139C141.737 85.9202 142.055 86.2395 142.39 86.5361C142.553 86.6848 142.734 86.8245 142.914 86.9496C143.077 87.1056 143.335 87.1528 143.618 87.1682C143.919 87.1763 144.108 87.2933 144.306 87.4103L144.315 87.4184C145.93 85.9982 148.059 85.0614 150.421 84.8583C150.447 84.6478 150.464 84.4366 150.644 84.2261C150.816 84.0157 150.937 83.8044 150.911 83.594C150.919 83.3836 150.911 83.1723 150.894 82.9538C150.842 82.5321 150.773 82.1104 150.575 81.6895C150.369 81.2605 150.593 80.7608 151.066 80.5731C151.538 80.3936 152.088 80.5886 152.294 81.0184C152.397 81.2451 152.388 81.4864 152.294 81.6895C152.096 82.1112 152.028 82.5321 151.976 82.9538C151.959 83.1723 151.95 83.3828 151.959 83.594C151.933 83.8044 152.053 84.0157 152.225 84.2261C152.405 84.4366 152.423 84.6478 152.448 84.8583C154.87 85.0687 157.051 86.0445 158.684 87.5273C158.882 87.4103 159.07 87.2852 159.371 87.2779C159.654 87.2624 159.912 87.2153 160.075 87.0593C160.255 86.9269 160.427 86.7863 160.599 86.6376C160.925 86.3411 161.243 86.0209 161.475 85.6155C161.707 85.1938 162.274 85.0305 162.729 85.2491C163.193 85.4595 163.373 85.9746 163.133 86.389C163.013 86.6076 162.807 86.7563 162.566 86.818C162.085 86.9431 161.681 87.169 161.295 87.403C161.106 87.5281 160.917 87.6524 160.745 87.793C160.547 87.91 160.444 88.1286 160.367 88.378C160.307 88.6437 160.144 88.7916 159.981 88.9476C161.097 90.4385 161.742 92.2414 161.742 94.1768C161.742 94.4734 161.725 94.7699 161.699 95.0592H161.708C161.931 95.1218 162.155 95.1762 162.352 95.3866C162.55 95.5743 162.756 95.7141 162.988 95.7303C163.22 95.7774 163.443 95.8083 163.675 95.8319C164.147 95.8709 164.611 95.8863 165.11 95.7848C165.617 95.6832 166.115 95.9724 166.226 96.4323C166.34 96.8833 166.022 97.3358 165.516 97.4374ZM158.541 90.3426C157.897 90.9674 157.236 91.5679 156.574 92.1691C156.153 92.5591 155.698 92.9337 155.26 93.3164C155.844 93.4488 156.428 93.5894 157.012 93.7454C157.914 93.9794 158.807 94.2061 159.7 94.4709L160.018 94.5644C160.027 94.4393 160.027 94.3068 160.027 94.1744C160.027 92.6834 159.572 91.2941 158.773 90.1159L158.541 90.3426ZM156.428 96.5558C156.024 96.5249 155.629 96.4859 155.226 96.4461C154.968 96.4153 154.762 96.6493 154.857 96.8751C155.003 97.2261 155.14 97.5779 155.278 97.9371C155.579 98.7333 155.888 99.5369 156.171 100.349L156.265 100.63C157.759 99.701 158.919 98.3588 159.528 96.7817L159.227 96.7663C158.292 96.7118 157.365 96.6338 156.428 96.5558ZM157.193 88.3837C155.965 87.3689 154.402 86.6742 152.675 86.4556L152.718 86.7603C152.838 87.6029 152.924 88.4544 153.01 89.2969C153.044 89.6325 153.079 89.9608 153.104 90.2963C153.121 90.5539 153.439 90.6863 153.671 90.5384C153.964 90.3434 154.265 90.1484 154.574 89.9608C155.347 89.4846 156.111 89.0085 156.901 88.5478L157.193 88.3837ZM152.408 99.1233C152.202 98.8032 152.004 98.4831 151.815 98.1556C151.678 97.9289 151.325 97.9289 151.188 98.1556C150.99 98.4912 150.784 98.8194 150.57 99.1388C150.098 99.8724 149.625 100.606 149.127 101.324L148.912 101.636C149.711 101.863 150.561 101.98 151.437 101.98C152.339 101.98 153.216 101.855 154.032 101.613L153.834 101.316C153.336 100.599 152.872 99.857 152.408 99.1233ZM149.866 89.2969C149.952 88.4536 150.038 87.6029 150.158 86.7603L150.201 86.4556C148.544 86.6661 147.041 87.3144 145.837 88.2667L146.103 88.4154C146.903 88.8679 147.676 89.3441 148.449 89.8202C148.896 90.0778 149.316 90.3662 149.737 90.64C149.772 90.1939 149.815 89.7414 149.866 89.2969ZM147.805 96.3373C147.401 96.3844 147.006 96.4388 146.602 96.4778C145.666 96.5794 144.747 96.6809 143.811 96.7589L143.347 96.7979C143.974 98.3904 145.159 99.7481 146.68 100.67L146.8 100.341C147.092 99.5296 147.401 98.7333 147.719 97.9298C147.865 97.5398 148.02 97.1571 148.183 96.7671C148.286 96.5396 148.071 96.2983 147.805 96.3373ZM147.187 93.3237C147.453 93.2538 147.531 92.9491 147.324 92.7777C147.032 92.5356 146.748 92.2934 146.465 92.0359C145.794 91.4346 145.133 90.8415 144.48 90.2248L144.205 89.9673C143.346 91.1771 142.848 92.6209 142.848 94.1744C142.848 94.3231 142.857 94.4628 142.857 94.6034L143.261 94.4783C144.146 94.1898 145.039 93.9396 145.923 93.6747C146.344 93.5504 146.766 93.4415 147.187 93.3237ZM147.324 92.7777C147.032 92.5356 146.748 92.2934 146.465 92.0359C145.794 91.4346 145.133 90.8415 144.48 90.2248L144.205 89.9673C143.346 91.1771 142.848 92.6209 142.848 94.1744C142.848 94.3231 142.857 94.4628 142.857 94.6034L143.261 94.4783C144.146 94.1898 145.039 93.9396 145.923 93.6747C146.344 93.5496 146.766 93.4407 147.186 93.3237C147.453 93.2538 147.53 92.9491 147.324 92.7777ZM147.805 96.3373C147.401 96.3844 147.006 96.4388 146.602 96.4778C145.666 96.5794 144.747 96.6809 143.811 96.7589L143.347 96.7979C143.974 98.3904 145.159 99.7481 146.68 100.67L146.8 100.341C147.092 99.5296 147.401 98.7333 147.719 97.9298C147.865 97.5398 148.02 97.1571 148.183 96.7671C148.286 96.5396 148.071 96.2983 147.805 96.3373ZM153.835 101.316C153.336 100.598 152.872 99.857 152.408 99.1233C152.202 98.8032 152.004 98.4831 151.815 98.1556C151.678 97.9289 151.325 97.9289 151.188 98.1556C150.99 98.4912 150.784 98.8194 150.57 99.1388C150.098 99.8724 149.625 100.606 149.127 101.324L148.912 101.636C149.711 101.863 150.561 101.98 151.437 101.98C152.339 101.98 153.216 101.855 154.032 101.613L153.835 101.316ZM152.675 86.4556L152.718 86.7603C152.838 87.6029 152.924 88.4544 153.01 89.2969C153.044 89.6325 153.079 89.9608 153.104 90.2963C153.121 90.5539 153.439 90.6863 153.671 90.5384C153.964 90.3434 154.265 90.1484 154.574 89.9608C155.347 89.4846 156.111 89.0085 156.901 88.5478L157.193 88.3837C155.965 87.3689 154.402 86.6742 152.675 86.4556ZM159.228 96.7663C158.292 96.7118 157.364 96.6338 156.428 96.5558C156.024 96.5249 155.629 96.4859 155.226 96.4461C154.968 96.4153 154.762 96.6493 154.857 96.8751C155.003 97.2261 155.14 97.5779 155.278 97.9371C155.579 98.7333 155.888 99.5369 156.171 100.349L156.265 100.63C157.759 99.701 158.919 98.3588 159.528 96.7817L159.228 96.7663ZM158.773 90.1159L158.541 90.3426C157.897 90.9674 157.236 91.5679 156.574 92.1691C156.153 92.5591 155.698 92.9337 155.26 93.3164C155.844 93.4488 156.428 93.5894 157.012 93.7454C157.914 93.9794 158.807 94.2061 159.7 94.4709L160.018 94.5644C160.027 94.4393 160.027 94.3068 160.027 94.1744C160.027 92.6843 159.572 91.2949 158.773 90.1159ZM158.773 90.1159L158.541 90.3426C157.897 90.9674 157.236 91.5679 156.574 92.1691C156.153 92.5591 155.698 92.9337 155.26 93.3164C155.844 93.4488 156.428 93.5894 157.012 93.7454C157.914 93.9794 158.807 94.2061 159.7 94.4709L160.018 94.5644C160.027 94.4393 160.027 94.3068 160.027 94.1744C160.027 92.6843 159.572 91.2949 158.773 90.1159ZM159.228 96.7663C158.292 96.7118 157.364 96.6338 156.428 96.5558C156.024 96.5249 155.629 96.4859 155.226 96.4461C154.968 96.4153 154.762 96.6493 154.857 96.8751C155.003 97.2261 155.14 97.5779 155.278 97.9371C155.579 98.7333 155.888 99.5369 156.171 100.349L156.265 100.63C157.759 99.701 158.919 98.3588 159.528 96.7817L159.228 96.7663ZM152.675 86.4556L152.718 86.7603C152.838 87.6029 152.924 88.4544 153.01 89.2969C153.044 89.6325 153.079 89.9608 153.104 90.2963C153.121 90.5539 153.439 90.6863 153.671 90.5384C153.964 90.3434 154.265 90.1484 154.574 89.9608C155.347 89.4846 156.111 89.0085 156.901 88.5478L157.193 88.3837C155.965 87.3689 154.402 86.6742 152.675 86.4556ZM153.835 101.316C153.336 100.598 152.872 99.857 152.408 99.1233C152.202 98.8032 152.004 98.4831 151.815 98.1556C151.678 97.9289 151.325 97.9289 151.188 98.1556C150.99 98.4912 150.784 98.8194 150.57 99.1388C150.098 99.8724 149.625 100.606 149.127 101.324L148.912 101.636C149.711 101.863 150.561 101.98 151.437 101.98C152.339 101.98 153.216 101.855 154.032 101.613L153.835 101.316ZM147.805 96.3373C147.401 96.3844 147.006 96.4388 146.602 96.4778C145.666 96.5794 144.747 96.6809 143.811 96.7589L143.347 96.7979C143.974 98.3904 145.159 99.7481 146.68 100.67L146.8 100.341C147.092 99.5296 147.401 98.7333 147.719 97.9298C147.865 97.5398 148.02 97.1571 148.183 96.7671C148.286 96.5396 148.071 96.2983 147.805 96.3373ZM147.324 92.7777C147.032 92.5356 146.748 92.2934 146.465 92.0359C145.794 91.4346 145.133 90.8415 144.48 90.2248L144.205 89.9673C143.346 91.1771 142.848 92.6209 142.848 94.1744C142.848 94.3231 142.857 94.4628 142.857 94.6034L143.261 94.4783C144.146 94.1898 145.039 93.9396 145.923 93.6747C146.344 93.5496 146.766 93.4407 147.186 93.3237C147.453 93.2538 147.53 92.9491 147.324 92.7777ZM147.805 96.3373C147.401 96.3844 147.006 96.4388 146.602 96.4778C145.666 96.5794 144.747 96.6809 143.811 96.7589L143.347 96.7979C143.974 98.3904 145.159 99.7481 146.68 100.67L146.8 100.341C147.092 99.5296 147.401 98.7333 147.719 97.9298C147.865 97.5398 148.02 97.1571 148.183 96.7671C148.286 96.5396 148.071 96.2983 147.805 96.3373ZM153.835 101.316C153.336 100.598 152.872 99.857 152.408 99.1233C152.202 98.8032 152.004 98.4831 151.815 98.1556C151.678 97.9289 151.325 97.9289 151.188 98.1556C150.99 98.4912 150.784 98.8194 150.57 99.1388C150.098 99.8724 149.625 100.606 149.127 101.324L148.912 101.636C149.711 101.863 150.561 101.98 151.437 101.98C152.339 101.98 153.216 101.855 154.032 101.613L153.835 101.316ZM152.675 86.4556L152.718 86.7603C152.838 87.6029 152.924 88.4544 153.01 89.2969C153.044 89.6325 153.079 89.9608 153.104 90.2963C153.121 90.5539 153.439 90.6863 153.671 90.5384C153.964 90.3434 154.265 90.1484 154.574 89.9608C155.347 89.4846 156.111 89.0085 156.901 88.5478L157.193 88.3837C155.965 87.3689 154.402 86.6742 152.675 86.4556ZM159.228 96.7663C158.292 96.7118 157.364 96.6338 156.428 96.5558C156.024 96.5249 155.629 96.4859 155.226 96.4461C154.968 96.4153 154.762 96.6493 154.857 96.8751C155.003 97.2261 155.14 97.5779 155.278 97.9371C155.579 98.7333 155.888 99.5369 156.171 100.349L156.265 100.63C157.759 99.701 158.919 98.3588 159.528 96.7817L159.228 96.7663ZM158.773 90.1159L158.541 90.3426C157.897 90.9674 157.236 91.5679 156.574 92.1691C156.153 92.5591 155.698 92.9337 155.26 93.3164C155.844 93.4488 156.428 93.5894 157.012 93.7454C157.914 93.9794 158.807 94.2061 159.7 94.4709L160.018 94.5644C160.027 94.4393 160.027 94.3068 160.027 94.1744C160.027 92.6843 159.572 91.2949 158.773 90.1159ZM158.773 90.1159L158.541 90.3426C157.897 90.9674 157.236 91.5679 156.574 92.1691C156.153 92.5591 155.698 92.9337 155.26 93.3164C155.844 93.4488 156.428 93.5894 157.012 93.7454C157.914 93.9794 158.807 94.2061 159.7 94.4709L160.018 94.5644C160.027 94.4393 160.027 94.3068 160.027 94.1744C160.027 92.6843 159.572 91.2949 158.773 90.1159ZM159.228 96.7663C158.292 96.7118 157.364 96.6338 156.428 96.5558C156.024 96.5249 155.629 96.4859 155.226 96.4461C154.968 96.4153 154.762 96.6493 154.857 96.8751C155.003 97.2261 155.14 97.5779 155.278 97.9371C155.579 98.7333 155.888 99.5369 156.171 100.349L156.265 100.63C157.759 99.701 158.919 98.3588 159.528 96.7817L159.228 96.7663ZM152.675 86.4556L152.718 86.7603C152.838 87.6029 152.924 88.4544 153.01 89.2969C153.044 89.6325 153.079 89.9608 153.104 90.2963C153.121 90.5539 153.439 90.6863 153.671 90.5384C153.964 90.3434 154.265 90.1484 154.574 89.9608C155.347 89.4846 156.111 89.0085 156.901 88.5478L157.193 88.3837C155.965 87.3689 154.402 86.6742 152.675 86.4556ZM153.835 101.316C153.336 100.598 152.872 99.857 152.408 99.1233C152.202 98.8032 152.004 98.4831 151.815 98.1556C151.678 97.9289 151.325 97.9289 151.188 98.1556C150.99 98.4912 150.784 98.8194 150.57 99.1388C150.098 99.8724 149.625 100.606 149.127 101.324L148.912 101.636C149.711 101.863 150.561 101.98 151.437 101.98C152.339 101.98 153.216 101.855 154.032 101.613L153.835 101.316ZM147.805 96.3373C147.401 96.3844 147.006 96.4388 146.602 96.4778C145.666 96.5794 144.747 96.6809 143.811 96.7589L143.347 96.7979C143.974 98.3904 145.159 99.7481 146.68 100.67L146.8 100.341C147.092 99.5296 147.401 98.7333 147.719 97.9298C147.865 97.5398 148.02 97.1571 148.183 96.7671C148.286 96.5396 148.071 96.2983 147.805 96.3373ZM153.835 101.316C153.336 100.598 152.872 99.857 152.408 99.1233C152.202 98.8032 152.004 98.4831 151.815 98.1556C151.678 97.9289 151.325 97.9289 151.188 98.1556C150.99 98.4912 150.784 98.8194 150.57 99.1388C150.098 99.8724 149.625 100.606 149.127 101.324L148.912 101.636C149.711 101.863 150.561 101.98 151.437 101.98C152.339 101.98 153.216 101.855 154.032 101.613L153.835 101.316ZM152.675 86.4556L152.718 86.7603C152.838 87.6029 152.924 88.4544 153.01 89.2969C153.044 89.6325 153.079 89.9608 153.104 90.2963C153.121 90.5539 153.439 90.6863 153.671 90.5384C153.964 90.3434 154.265 90.1484 154.574 89.9608C155.347 89.4846 156.111 89.0085 156.901 88.5478L157.193 88.3837C155.965 87.3689 154.402 86.6742 152.675 86.4556ZM159.228 96.7663C158.292 96.7118 157.364 96.6338 156.428 96.5558C156.024 96.5249 155.629 96.4859 155.226 96.4461C154.968 96.4153 154.762 96.6493 154.857 96.8751C155.003 97.2261 155.14 97.5779 155.278 97.9371C155.579 98.7333 155.888 99.5369 156.171 100.349L156.265 100.63C157.759 99.701 158.919 98.3588 159.528 96.7817L159.228 96.7663ZM158.773 90.1159L158.541 90.3426C157.897 90.9674 157.236 91.5679 156.574 92.1691C156.153 92.5591 155.698 92.9337 155.26 93.3164C155.844 93.4488 156.428 93.5894 157.012 93.7454C157.914 93.9794 158.807 94.2061 159.7 94.4709L160.018 94.5644C160.027 94.4393 160.027 94.3068 160.027 94.1744C160.027 92.6843 159.572 91.2949 158.773 90.1159ZM158.773 90.1159L158.541 90.3426C157.897 90.9674 157.236 91.5679 156.574 92.1691C156.153 92.5591 155.698 92.9337 155.26 93.3164C155.844 93.4488 156.428 93.5894 157.012 93.7454C157.914 93.9794 158.807 94.2061 159.7 94.4709L160.018 94.5644C160.027 94.4393 160.027 94.3068 160.027 94.1744C160.027 92.6843 159.572 91.2949 158.773 90.1159ZM159.228 96.7663C158.292 96.7118 157.364 96.6338 156.428 96.5558C156.024 96.5249 155.629 96.4859 155.226 96.4461C154.968 96.4153 154.762 96.6493 154.857 96.8751C155.003 97.2261 155.14 97.5779 155.278 97.9371C155.579 98.7333 155.888 99.5369 156.171 100.349L156.265 100.63C157.759 99.701 158.919 98.3588 159.528 96.7817L159.228 96.7663ZM152.675 86.4556L152.718 86.7603C152.838 87.6029 152.924 88.4544 153.01 89.2969C153.044 89.6325 153.079 89.9608 153.104 90.2963C153.121 90.5539 153.439 90.6863 153.671 90.5384C153.964 90.3434 154.265 90.1484 154.574 89.9608C155.347 89.4846 156.111 89.0085 156.901 88.5478L157.193 88.3837C155.965 87.3689 154.402 86.6742 152.675 86.4556ZM153.835 101.316C153.336 100.598 152.872 99.857 152.408 99.1233C152.202 98.8032 152.004 98.4831 151.815 98.1556C151.678 97.9289 151.325 97.9289 151.188 98.1556C150.99 98.4912 150.784 98.8194 150.57 99.1388C150.098 99.8724 149.625 100.606 149.127 101.324L148.912 101.636C149.711 101.863 150.561 101.98 151.437 101.98C152.339 101.98 153.216 101.855 154.032 101.613L153.835 101.316ZM153.835 101.316C153.336 100.598 152.872 99.857 152.408 99.1233C152.202 98.8032 152.004 98.4831 151.815 98.1556C151.678 97.9289 151.325 97.9289 151.188 98.1556C150.99 98.4912 150.784 98.8194 150.57 99.1388C150.098 99.8724 149.625 100.606 149.127 101.324L148.912 101.636C149.711 101.863 150.561 101.98 151.437 101.98C152.339 101.98 153.216 101.855 154.032 101.613L153.835 101.316ZM152.675 86.4556L152.718 86.7603C152.838 87.6029 152.924 88.4544 153.01 89.2969C153.044 89.6325 153.079 89.9608 153.104 90.2963C153.121 90.5539 153.439 90.6863 153.671 90.5384C153.964 90.3434 154.265 90.1484 154.574 89.9608C155.347 89.4846 156.111 89.0085 156.901 88.5478L157.193 88.3837C155.965 87.3689 154.402 86.6742 152.675 86.4556ZM159.228 96.7663C158.292 96.7118 157.364 96.6338 156.428 96.5558C156.024 96.5249 155.629 96.4859 155.226 96.4461C154.968 96.4153 154.762 96.6493 154.857 96.8751C155.003 97.2261 155.14 97.5779 155.278 97.9371C155.579 98.7333 155.888 99.5369 156.171 100.349L156.265 100.63C157.759 99.701 158.919 98.3588 159.528 96.7817L159.228 96.7663ZM158.773 90.1159L158.541 90.3426C157.897 90.9674 157.236 91.5679 156.574 92.1691C156.153 92.5591 155.698 92.9337 155.26 93.3164C155.844 93.4488 156.428 93.5894 157.012 93.7454C157.914 93.9794 158.807 94.2061 159.7 94.4709L160.018 94.5644C160.027 94.4393 160.027 94.3068 160.027 94.1744C160.027 92.6843 159.572 91.2949 158.773 90.1159ZM158.773 90.1159L158.541 90.3426C157.897 90.9674 157.236 91.5679 156.574 92.1691C156.153 92.5591 155.698 92.9337 155.26 93.3164C155.844 93.4488 156.428 93.5894 157.012 93.7454C157.914 93.9794 158.807 94.2061 159.7 94.4709L160.018 94.5644C160.027 94.4393 160.027 94.3068 160.027 94.1744C160.027 92.6843 159.572 91.2949 158.773 90.1159ZM159.228 96.7663C158.292 96.7118 157.364 96.6338 156.428 96.5558C156.024 96.5249 155.629 96.4859 155.226 96.4461C154.968 96.4153 154.762 96.6493 154.857 96.8751C155.003 97.2261 155.14 97.5779 155.278 97.9371C155.579 98.7333 155.888 99.5369 156.171 100.349L156.265 100.63C157.759 99.701 158.919 98.3588 159.528 96.7817L159.228 96.7663ZM152.675 86.4556L152.718 86.7603C152.838 87.6029 152.924 88.4544 153.01 89.2969C153.044 89.6325 153.079 89.9608 153.104 90.2963C153.121 90.5539 153.439 90.6863 153.671 90.5384C153.964 90.3434 154.265 90.1484 154.574 89.9608C155.347 89.4846 156.111 89.0085 156.901 88.5478L157.193 88.3837C155.965 87.3689 154.402 86.6742 152.675 86.4556ZM153.835 101.316C153.336 100.598 152.872 99.857 152.408 99.1233C152.202 98.8032 152.004 98.4831 151.815 98.1556C151.678 97.9289 151.325 97.9289 151.188 98.1556C150.99 98.4912 150.784 98.8194 150.57 99.1388C150.098 99.8724 149.625 100.606 149.127 101.324L148.912 101.636C149.711 101.863 150.561 101.98 151.437 101.98C152.339 101.98 153.216 101.855 154.032 101.613L153.835 101.316ZM152.675 86.4556L152.718 86.7603C152.838 87.6029 152.924 88.4544 153.01 89.2969C153.044 89.6325 153.079 89.9608 153.104 90.2963C153.121 90.5539 153.439 90.6863 153.671 90.5384C153.964 90.3434 154.265 90.1484 154.574 89.9608C155.347 89.4846 156.111 89.0085 156.901 88.5478L157.193 88.3837C155.965 87.3689 154.402 86.6742 152.675 86.4556ZM159.228 96.7663C158.292 96.7118 157.364 96.6338 156.428 96.5558C156.024 96.5249 155.629 96.4859 155.226 96.4461C154.968 96.4153 154.762 96.6493 154.857 96.8751C155.003 97.2261 155.14 97.5779 155.278 97.9371C155.579 98.7333 155.888 99.5369 156.171 100.349L156.265 100.63C157.759 99.701 158.919 98.3588 159.528 96.7817L159.228 96.7663ZM158.773 90.1159L158.541 90.3426C157.897 90.9674 157.236 91.5679 156.574 92.1691C156.153 92.5591 155.698 92.9337 155.26 93.3164C155.844 93.4488 156.428 93.5894 157.012 93.7454C157.914 93.9794 158.807 94.2061 159.7 94.4709L160.018 94.5644C160.027 94.4393 160.027 94.3068 160.027 94.1744C160.027 92.6843 159.572 91.2949 158.773 90.1159ZM158.773 90.1159L158.541 90.3426C157.897 90.9674 157.236 91.5679 156.574 92.1691C156.153 92.5591 155.698 92.9337 155.26 93.3164C155.844 93.4488 156.428 93.5894 157.012 93.7454C157.914 93.9794 158.807 94.2061 159.7 94.4709L160.018 94.5644C160.027 94.4393 160.027 94.3068 160.027 94.1744C160.027 92.6843 159.572 91.2949 158.773 90.1159ZM159.228 96.7663C158.292 96.7118 157.364 96.6338 156.428 96.5558C156.024 96.5249 155.629 96.4859 155.226 96.4461C154.968 96.4153 154.762 96.6493 154.857 96.8751C155.003 97.2261 155.14 97.5779 155.278 97.9371C155.579 98.7333 155.888 99.5369 156.171 100.349L156.265 100.63C157.759 99.701 158.919 98.3588 159.528 96.7817L159.228 96.7663ZM152.675 86.4556L152.718 86.7603C152.838 87.6029 152.924 88.4544 153.01 89.2969C153.044 89.6325 153.079 89.9608 153.104 90.2963C153.121 90.5539 153.439 90.6863 153.671 90.5384C153.964 90.3434 154.265 90.1484 154.574 89.9608C155.347 89.4846 156.111 89.0085 156.901 88.5478L157.193 88.3837C155.965 87.3689 154.402 86.6742 152.675 86.4556ZM152.675 86.4556L152.718 86.7603C152.838 87.6029 152.924 88.4544 153.01 89.2969C153.044 89.6325 153.079 89.9608 153.104 90.2963C153.121 90.5539 153.439 90.6863 153.671 90.5384C153.964 90.3434 154.265 90.1484 154.574 89.9608C155.347 89.4846 156.111 89.0085 156.901 88.5478L157.193 88.3837C155.965 87.3689 154.402 86.6742 152.675 86.4556ZM158.773 90.1159L158.541 90.3426C157.897 90.9674 157.236 91.5679 156.574 92.1691C156.153 92.5591 155.698 92.9337 155.26 93.3164C155.844 93.4488 156.428 93.5894 157.012 93.7454C157.914 93.9794 158.807 94.2061 159.7 94.4709L160.018 94.5644C160.027 94.4393 160.027 94.3068 160.027 94.1744C160.027 92.6843 159.572 91.2949 158.773 90.1159ZM158.773 90.1159L158.541 90.3426C157.897 90.9674 157.236 91.5679 156.574 92.1691C156.153 92.5591 155.698 92.9337 155.26 93.3164C155.844 93.4488 156.428 93.5894 157.012 93.7454C157.914 93.9794 158.807 94.2061 159.7 94.4709L160.018 94.5644C160.027 94.4393 160.027 94.3068 160.027 94.1744C160.027 92.6843 159.572 91.2949 158.773 90.1159ZM152.675 86.4556L152.718 86.7603C152.838 87.6029 152.924 88.4544 153.01 89.2969C153.044 89.6325 153.079 89.9608 153.104 90.2963C153.121 90.5539 153.439 90.6863 153.671 90.5384C153.964 90.3434 154.265 90.1484 154.574 89.9608C155.347 89.4846 156.111 89.0085 156.901 88.5478L157.193 88.3837C155.965 87.3689 154.402 86.6742 152.675 86.4556ZM152.675 86.4556L152.718 86.7603C152.838 87.6029 152.924 88.4544 153.01 89.2969C153.044 89.6325 153.079 89.9608 153.104 90.2963C153.121 90.5539 153.439 90.6863 153.671 90.5384C153.964 90.3434 154.265 90.1484 154.574 89.9608C155.347 89.4846 156.111 89.0085 156.901 88.5478L157.193 88.3837C155.965 87.3689 154.402 86.6742 152.675 86.4556ZM158.773 90.1159L158.541 90.3426C157.897 90.9674 157.236 91.5679 156.574 92.1691C156.153 92.5591 155.698 92.9337 155.26 93.3164C155.844 93.4488 156.428 93.5894 157.012 93.7454C157.914 93.9794 158.807 94.2061 159.7 94.4709L160.018 94.5644C160.027 94.4393 160.027 94.3068 160.027 94.1744C160.027 92.6843 159.572 91.2949 158.773 90.1159ZM158.773 90.1159L158.541 90.3426C157.897 90.9674 157.236 91.5679 156.574 92.1691C156.153 92.5591 155.698 92.9337 155.26 93.3164C155.844 93.4488 156.428 93.5894 157.012 93.7454C157.914 93.9794 158.807 94.2061 159.7 94.4709L160.018 94.5644C160.027 94.4393 160.027 94.3068 160.027 94.1744C160.027 92.6843 159.572 91.2949 158.773 90.1159ZM152.675 86.4556L152.718 86.7603C152.838 87.6029 152.924 88.4544 153.01 89.2969C153.044 89.6325 153.079 89.9608 153.104 90.2963C153.121 90.5539 153.439 90.6863 153.671 90.5384C153.964 90.3434 154.265 90.1484 154.574 89.9608C155.347 89.4846 156.111 89.0085 156.901 88.5478L157.193 88.3837C155.965 87.3689 154.402 86.6742 152.675 86.4556ZM152.675 86.4556L152.718 86.7603C152.838 87.6029 152.924 88.4544 153.01 89.2969C153.044 89.6325 153.079 89.9608 153.104 90.2963C153.121 90.5539 153.439 90.6863 153.671 90.5384C153.964 90.3434 154.265 90.1484 154.574 89.9608C155.347 89.4846 156.111 89.0085 156.901 88.5478L157.193 88.3837C155.965 87.3689 154.402 86.6742 152.675 86.4556ZM152.675 86.4556L152.718 86.7603C152.838 87.6029 152.924 88.4544 153.01 89.2969C153.044 89.6325 153.079 89.9608 153.104 90.2963C153.121 90.5539 153.439 90.6863 153.671 90.5384C153.964 90.3434 154.265 90.1484 154.574 89.9608C155.347 89.4846 156.111 89.0085 156.901 88.5478L157.193 88.3837C155.965 87.3689 154.402 86.6742 152.675 86.4556Z" fill="#0277BD"/>
<rect x="109" y="279" width="75" height="57" rx="19" fill="#242F7D"/>
<path d="M146.263 304.727H147.58V309.479C147.58 310 147.457 310.458 147.211 310.853C146.967 311.248 146.624 311.557 146.181 311.78C145.738 312 145.221 312.11 144.629 312.11C144.035 312.11 143.517 312 143.074 311.78C142.631 311.557 142.288 311.248 142.044 310.853C141.8 310.458 141.678 310 141.678 309.479V304.727H142.996V309.369C142.996 309.672 143.062 309.942 143.195 310.178C143.33 310.415 143.519 310.601 143.763 310.736C144.007 310.868 144.295 310.935 144.629 310.935C144.963 310.935 145.252 310.868 145.496 310.736C145.742 310.601 145.931 310.415 146.064 310.178C146.196 309.942 146.263 309.672 146.263 309.369V304.727ZM150.33 304.727V312H149.012V304.727H150.33Z" fill="white"/>
</svg>
